<?plantuml 1.2026.2?><svg xmlns="http://www.w3.org/2000/svg" xmlns:xlink="http://www.w3.org/1999/xlink" contentStyleType="text/css" data-diagram-type="SEQUENCE" height="1626px" preserveAspectRatio="none" style="width:1331px;height:1626px;background:#FFFFFF;" version="1.1" viewBox="0 0 1331 1626" width="1331px" zoomAndPan="magnify"><title>Categorization Review Human-in-the-Loop Flow</title><defs/><g><text fill="#000000" font-family="sans-serif" font-size="14" font-weight="bold" lengthAdjust="spacing" textLength="332.2047" x="501.0648" y="29.9659">Categorization Review Human-in-the-Loop Flow</text><rect fill="none" height="327.4722" style="stroke:#000000;stroke-width:1.5;" width="1165.8762" x="20" y="141.1358"/><rect fill="none" height="82.118" style="stroke:#000000;stroke-width:1.5;" width="270.5159" x="168.2333" y="217.2539"/><rect fill="none" height="283.8842" style="stroke:#000000;stroke-width:1.5;" width="817.6454" x="20" y="482.608"/><rect fill="none" height="549.6902" style="stroke:#000000;stroke-width:1.5;" width="1185.8762" x="10" y="780.4923"/><rect fill="none" height="82.118" style="stroke:#000000;stroke-width:1.5;" width="344.629" x="168.2333" y="856.6103"/><rect fill="none" height="230.63" style="stroke:#000000;stroke-width:1.5;" width="1165.8762" x="20" y="1092.5524"/><rect fill="none" height="181.9421" style="stroke:#000000;stroke-width:1.5;" width="1305.3343" x="20" y="1344.1824"/><g class="participant-lifeline" data-entity-uid="part1" data-qualified-name="Analyst" id="part1-lifeline"><g><title>Analyst</title><rect fill="#000000" fill-opacity="0.00000" height="1418.9887" width="8" x="52.9819" y="124.1358"/><line style="stroke:#181818;stroke-width:0.5;stroke-dasharray:5,5;" x1="56" x2="56" y1="124.1358" y2="1543.1246"/></g></g><g class="participant-lifeline" data-entity-uid="part2" data-qualified-name="CLI" id="part2-lifeline"><g><title>finance_tooling CLI</title><rect fill="#000000" fill-opacity="0.00000" height="1418.9887" width="8" x="243.9671" y="124.1358"/><line style="stroke:#181818;stroke-width:0.5;stroke-dasharray:5,5;" x1="247.2333" x2="247.2333" y1="124.1358" y2="1543.1246"/></g></g><g class="participant-lifeline" data-entity-uid="part3" data-qualified-name="NORMALIZED" id="part3-lifeline"><g><title>transactions_normalized.csv</title><rect fill="#000000" fill-opacity="0.00000" height="1418.9887" width="8" x="544.2403" y="124.1358"/><line style="stroke:#181818;stroke-width:0.5;stroke-dasharray:5,5;" x1="547.3507" x2="547.3507" y1="124.1358" y2="1543.1246"/></g></g><g class="participant-lifeline" data-entity-uid="part4" data-qualified-name="REVIEW" id="part4-lifeline"><g><title>..file..</title><rect fill="#000000" fill-opacity="0.00000" height="1418.9887" width="8" x="736.8877" y="124.1358"/><line style="stroke:#181818;stroke-width:0.5;stroke-dasharray:5,5;" x1="740.13" x2="740.13" y1="124.1358" y2="1543.1246"/></g></g><g class="participant-lifeline" data-entity-uid="part5" data-qualified-name="TX_OVERRIDES" id="part5-lifeline"><g><title>transaction_overrides.yaml</title><rect fill="#000000" fill-opacity="0.00000" height="1418.9887" width="8" x="925.615" y="124.1358"/><line style="stroke:#181818;stroke-width:0.5;stroke-dasharray:5,5;" x1="928.6454" x2="928.6454" y1="124.1358" y2="1543.1246"/></g></g><g class="participant-lifeline" data-entity-uid="part6" data-qualified-name="REVIEW_STATE" id="part6-lifeline"><g><title>review_state.parquet</title><rect fill="#000000" fill-opacity="0.00000" height="1418.9887" width="8" x="1099.7304" y="124.1358"/><line style="stroke:#181818;stroke-width:0.5;stroke-dasharray:5,5;" x1="1103.5847" x2="1103.5847" y1="124.1358" y2="1543.1246"/></g></g><g class="participant-lifeline" data-entity-uid="part7" data-qualified-name="TRANSFORM" id="part7-lifeline"><g><title>transform stage</title><rect fill="#000000" fill-opacity="0.00000" height="1418.9887" width="8" x="1251.3515" y="124.1358"/><line style="stroke:#181818;stroke-width:0.5;stroke-dasharray:5,5;" x1="1254.3687" x2="1254.3687" y1="124.1358" y2="1543.1246"/></g></g><g class="participant participant-head" data-entity-uid="part1" data-qualified-name="Analyst" id="part1-head"><text fill="#000000" font-family="sans-serif" font-size="14" lengthAdjust="spacing" textLength="47.9638" x="30" y="120.0339">Analyst</text><ellipse cx="56.9819" cy="53.5679" fill="#E2E2F0" rx="8" ry="8" style="stroke:#181818;stroke-width:0.5;"/><path d="M56.9819,61.5679 L56.9819,88.5679 M43.9819,69.5679 L69.9819,69.5679 M56.9819,88.5679 L43.9819,103.5679 M56.9819,88.5679 L69.9819,103.5679" fill="none" style="stroke:#181818;stroke-width:0.5;"/></g><g class="participant participant-tail" data-entity-uid="part1" data-qualified-name="Analyst" id="part1-tail"><text fill="#000000" font-family="sans-serif" font-size="14" lengthAdjust="spacing" textLength="47.9638" x="30" y="1557.0905">Analyst</text><ellipse cx="56.9819" cy="1569.6925" fill="#E2E2F0" rx="8" ry="8" style="stroke:#181818;stroke-width:0.5;"/><path d="M56.9819,1577.6925 L56.9819,1604.6925 M43.9819,1585.6925 L69.9819,1585.6925 M56.9819,1604.6925 L43.9819,1619.6925 M56.9819,1604.6925 L69.9819,1619.6925" fill="none" style="stroke:#181818;stroke-width:0.5;"/></g><g class="participant participant-head" data-entity-uid="part2" data-qualified-name="CLI" id="part2-head"><rect fill="#E2E2F0" height="33.0679" rx="2.5" ry="2.5" style="stroke:#181818;stroke-width:0.5;" width="139.4675" x="178.2333" y="90.0679"/><text fill="#000000" font-family="sans-serif" font-size="14" lengthAdjust="spacing" textLength="125.4675" x="185.2333" y="112.0339">finance_tooling CLI</text></g><g class="participant participant-tail" data-entity-uid="part2" data-qualified-name="CLI" id="part2-tail"><rect fill="#E2E2F0" height="33.0679" rx="2.5" ry="2.5" style="stroke:#181818;stroke-width:0.5;" width="139.4675" x="178.2333" y="1542.1246"/><text fill="#000000" font-family="sans-serif" font-size="14" lengthAdjust="spacing" textLength="125.4675" x="185.2333" y="1564.0905">finance_tooling CLI</text></g><g class="participant participant-head" data-entity-uid="part3" data-qualified-name="NORMALIZED" id="part3-head"><text fill="#000000" font-family="sans-serif" font-size="14" lengthAdjust="spacing" textLength="185.7793" x="452.3507" y="120.0339">transactions_normalized.csv</text><path d="M530.2403,69.0679 C530.2403,59.0679 548.2403,59.0679 548.2403,59.0679 C548.2403,59.0679 566.2403,59.0679 566.2403,69.0679 L566.2403,95.0679 C566.2403,105.0679 548.2403,105.0679 548.2403,105.0679 C548.2403,105.0679 530.2403,105.0679 530.2403,95.0679 L530.2403,69.0679" fill="#E2E2F0" style="stroke:#181818;stroke-width:0.5;"/><path d="M530.2403,69.0679 C530.2403,79.0679 548.2403,79.0679 548.2403,79.0679 C548.2403,79.0679 566.2403,79.0679 566.2403,69.0679" fill="none" style="stroke:#181818;stroke-width:0.5;"/></g><g class="participant participant-tail" data-entity-uid="part3" data-qualified-name="NORMALIZED" id="part3-tail"><text fill="#000000" font-family="sans-serif" font-size="14" lengthAdjust="spacing" textLength="185.7793" x="452.3507" y="1557.0905">transactions_normalized.csv</text><path d="M530.2403,1571.1925 C530.2403,1561.1925 548.2403,1561.1925 548.2403,1561.1925 C548.2403,1561.1925 566.2403,1561.1925 566.2403,1571.1925 L566.2403,1597.1925 C566.2403,1607.1925 548.2403,1607.1925 548.2403,1607.1925 C548.2403,1607.1925 530.2403,1607.1925 530.2403,1597.1925 L530.2403,1571.1925" fill="#E2E2F0" style="stroke:#181818;stroke-width:0.5;"/><path d="M530.2403,1571.1925 C530.2403,1581.1925 548.2403,1581.1925 548.2403,1581.1925 C548.2403,1581.1925 566.2403,1581.1925 566.2403,1571.1925" fill="none" style="stroke:#181818;stroke-width:0.5;"/></g><g class="participant participant-head" data-entity-uid="part4" data-qualified-name="REVIEW" id="part4-head"><rect fill="#E2E2F0" height="52.1358" rx="2.5" ry="2.5" style="stroke:#181818;stroke-width:0.5;" width="173.5154" x="654.13" y="71"/><text fill="#000000" font-family="sans-serif" font-size="14" font-style="italic" lengthAdjust="spacing" textLength="32.0179" x="724.8787" y="92.9659">&#171;file&#187;</text><text fill="#000000" font-family="sans-serif" font-size="14" lengthAdjust="spacing" textLength="159.5154" x="661.13" y="112.0339">transactions_review.xlsx</text></g><g class="participant participant-tail" data-entity-uid="part4" data-qualified-name="REVIEW" id="part4-tail"><rect fill="#E2E2F0" height="52.1358" rx="2.5" ry="2.5" style="stroke:#181818;stroke-width:0.5;" width="173.5154" x="654.13" y="1542.1246"/><text fill="#000000" font-family="sans-serif" font-size="14" font-style="italic" lengthAdjust="spacing" textLength="32.0179" x="724.8787" y="1564.0905">&#171;file&#187;</text><text fill="#000000" font-family="sans-serif" font-size="14" lengthAdjust="spacing" textLength="159.5154" x="661.13" y="1583.1584">transactions_review.xlsx</text></g><g class="participant participant-head" data-entity-uid="part5" data-qualified-name="TX_OVERRIDES" id="part5-head"><text fill="#000000" font-family="sans-serif" font-size="14" lengthAdjust="spacing" textLength="177.9393" x="837.6454" y="120.0339">transaction_overrides.yaml</text><path d="M911.615,69.0679 C911.615,59.0679 929.615,59.0679 929.615,59.0679 C929.615,59.0679 947.615,59.0679 947.615,69.0679 L947.615,95.0679 C947.615,105.0679 929.615,105.0679 929.615,105.0679 C929.615,105.0679 911.615,105.0679 911.615,95.0679 L911.615,69.0679" fill="#E2E2F0" style="stroke:#181818;stroke-width:0.5;"/><path d="M911.615,69.0679 C911.615,79.0679 929.615,79.0679 929.615,79.0679 C929.615,79.0679 947.615,79.0679 947.615,69.0679" fill="none" style="stroke:#181818;stroke-width:0.5;"/></g><g class="participant participant-tail" data-entity-uid="part5" data-qualified-name="TX_OVERRIDES" id="part5-tail"><text fill="#000000" font-family="sans-serif" font-size="14" lengthAdjust="spacing" textLength="177.9393" x="837.6454" y="1557.0905">transaction_overrides.yaml</text><path d="M911.615,1571.1925 C911.615,1561.1925 929.615,1561.1925 929.615,1561.1925 C929.615,1561.1925 947.615,1561.1925 947.615,1571.1925 L947.615,1597.1925 C947.615,1607.1925 929.615,1607.1925 929.615,1607.1925 C929.615,1607.1925 911.615,1607.1925 911.615,1597.1925 L911.615,1571.1925" fill="#E2E2F0" style="stroke:#181818;stroke-width:0.5;"/><path d="M911.615,1571.1925 C911.615,1581.1925 929.615,1581.1925 929.615,1581.1925 C929.615,1581.1925 947.615,1581.1925 947.615,1571.1925" fill="none" style="stroke:#181818;stroke-width:0.5;"/></g><g class="participant participant-head" data-entity-uid="part6" data-qualified-name="REVIEW_STATE" id="part6-head"><text fill="#000000" font-family="sans-serif" font-size="14" lengthAdjust="spacing" textLength="138.2915" x="1031.5847" y="120.0339">review_state.parquet</text><path d="M1085.7304,69.0679 C1085.7304,59.0679 1103.7304,59.0679 1103.7304,59.0679 C1103.7304,59.0679 1121.7304,59.0679 1121.7304,69.0679 L1121.7304,95.0679 C1121.7304,105.0679 1103.7304,105.0679 1103.7304,105.0679 C1103.7304,105.0679 1085.7304,105.0679 1085.7304,95.0679 L1085.7304,69.0679" fill="#E2E2F0" style="stroke:#181818;stroke-width:0.5;"/><path d="M1085.7304,69.0679 C1085.7304,79.0679 1103.7304,79.0679 1103.7304,79.0679 C1103.7304,79.0679 1121.7304,79.0679 1121.7304,69.0679" fill="none" style="stroke:#181818;stroke-width:0.5;"/></g><g class="participant participant-tail" data-entity-uid="part6" data-qualified-name="REVIEW_STATE" id="part6-tail"><text fill="#000000" font-family="sans-serif" font-size="14" lengthAdjust="spacing" textLength="138.2915" x="1031.5847" y="1557.0905">review_state.parquet</text><path d="M1085.7304,1571.1925 C1085.7304,1561.1925 1103.7304,1561.1925 1103.7304,1561.1925 C1103.7304,1561.1925 1121.7304,1561.1925 1121.7304,1571.1925 L1121.7304,1597.1925 C1121.7304,1607.1925 1103.7304,1607.1925 1103.7304,1607.1925 C1103.7304,1607.1925 1085.7304,1607.1925 1085.7304,1597.1925 L1085.7304,1571.1925" fill="#E2E2F0" style="stroke:#181818;stroke-width:0.5;"/><path d="M1085.7304,1571.1925 C1085.7304,1581.1925 1103.7304,1581.1925 1103.7304,1581.1925 C1103.7304,1581.1925 1121.7304,1581.1925 1121.7304,1571.1925" fill="none" style="stroke:#181818;stroke-width:0.5;"/></g><g class="participant participant-head" data-entity-uid="part7" data-qualified-name="TRANSFORM" id="part7-head"><rect fill="#E2E2F0" height="33.0679" rx="2.5" ry="2.5" style="stroke:#181818;stroke-width:0.5;" width="119.9656" x="1195.3687" y="90.0679"/><text fill="#000000" font-family="sans-serif" font-size="14" lengthAdjust="spacing" textLength="105.9656" x="1202.3687" y="112.0339">transform stage</text></g><g class="participant participant-tail" data-entity-uid="part7" data-qualified-name="TRANSFORM" id="part7-tail"><rect fill="#E2E2F0" height="33.0679" rx="2.5" ry="2.5" style="stroke:#181818;stroke-width:0.5;" width="119.9656" x="1195.3687" y="1542.1246"/><text fill="#000000" font-family="sans-serif" font-size="14" lengthAdjust="spacing" textLength="105.9656" x="1202.3687" y="1564.0905">transform stage</text></g><path d="M20,141.1358 L157.4561,141.1358 L157.4561,150.8419 L147.4561,160.8419 L20,160.8419 L20,141.1358" fill="#EEEEEE" style="stroke:#000000;stroke-width:1.5;"/><rect fill="none" height="327.4722" style="stroke:#000000;stroke-width:1.5;" width="1165.8762" x="20" y="141.1358"/><text fill="#000000" font-family="sans-serif" font-size="13" font-weight="bold" lengthAdjust="spacing" textLength="92.4561" x="35" y="156.0328">Review Export</text><g class="message" data-entity-1="part1" data-entity-2="part2" id="msg1"><polygon fill="#181818" points="235.9671,198.2539,245.9671,202.2539,235.9671,206.2539,239.9671,202.2539" style="stroke:#181818;stroke-width:1;"/><line style="stroke:#181818;stroke-width:1;" x1="56.9819" x2="241.9671" y1="202.2539" y2="202.2539"/><text fill="#000000" font-family="sans-serif" font-size="13" lengthAdjust="spacing" textLength="84.526" x="63.9819" y="178.7389">review-export</text><text fill="#000000" font-family="sans-serif" font-size="13" lengthAdjust="spacing" textLength="141.9731" x="63.9819" y="196.4449">[with flags OR defaults]</text></g><path d="M168.2333,217.2539 L230.5363,217.2539 L230.5363,226.9599 L220.5363,236.9599 L168.2333,236.9599 L168.2333,217.2539" fill="#EEEEEE" style="stroke:#000000;stroke-width:1.5;"/><rect fill="none" height="82.118" style="stroke:#000000;stroke-width:1.5;" width="270.5159" x="168.2333" y="217.2539"/><text fill="#000000" font-family="sans-serif" font-size="13" font-weight="bold" lengthAdjust="spacing" textLength="17.303" x="183.2333" y="232.1509">alt</text><text fill="#000000" font-family="sans-serif" font-size="11" font-weight="bold" lengthAdjust="spacing" textLength="80.6954" x="245.5363" y="231.0128">[flags omitted]</text><g class="message" data-entity-1="part2" data-entity-2="part2" id="msg2"><line style="stroke:#181818;stroke-width:1;" x1="247.9671" x2="289.9671" y1="278.3719" y2="278.3719"/><line style="stroke:#181818;stroke-width:1;" x1="289.9671" x2="289.9671" y1="278.3719" y2="291.3719"/><line style="stroke:#181818;stroke-width:1;" x1="248.9671" x2="289.9671" y1="291.3719" y2="291.3719"/><polygon fill="#181818" points="258.9671,287.3719,248.9671,291.3719,258.9671,295.3719,254.9671,291.3719" style="stroke:#181818;stroke-width:1;"/><text fill="#000000" font-family="sans-serif" font-size="13" lengthAdjust="spacing" textLength="161.6551" x="254.9671" y="254.8569">Resolve defaults from .env</text><text fill="#000000" font-family="sans-serif" font-size="13" lengthAdjust="spacing" textLength="171.7822" x="254.9671" y="272.5629">FINANCE_PROCESSED_PATH</text></g><g class="message" data-entity-1="part2" data-entity-2="part3" id="msg3"><polygon fill="#181818" points="536.2403,326.0779,546.2403,330.0779,536.2403,334.0779,540.2403,330.0779" style="stroke:#181818;stroke-width:1;"/><line style="stroke:#181818;stroke-width:1;" x1="247.9671" x2="542.2403" y1="330.0779" y2="330.0779"/><text fill="#000000" font-family="sans-serif" font-size="13" lengthAdjust="spacing" textLength="136.9941" x="254.9671" y="324.2689">Read normalized table</text></g><g class="message" data-entity-1="part2" data-entity-2="part6" id="msg4"><polygon fill="#181818" points="1091.7304,357.784,1101.7304,361.784,1091.7304,365.784,1095.7304,361.784" style="stroke:#181818;stroke-width:1;"/><line style="stroke:#181818;stroke-width:1;" x1="247.9671" x2="1097.7304" y1="361.784" y2="361.784"/><text fill="#000000" font-family="sans-serif" font-size="13" lengthAdjust="spacing" textLength="167.0761" x="254.9671" y="355.975">Load persisted review state</text></g><g class="message" data-entity-1="part2" data-entity-2="part4" id="msg5"><polygon fill="#181818" points="728.8877,407.196,738.8877,411.196,728.8877,415.196,732.8877,411.196" style="stroke:#181818;stroke-width:1;"/><line style="stroke:#181818;stroke-width:1;" x1="247.9671" x2="734.8877" y1="411.196" y2="411.196"/><text fill="#000000" font-family="sans-serif" font-size="13" lengthAdjust="spacing" textLength="200.5121" x="254.9671" y="387.681">Write uncategorized review rows</text><text fill="#000000" font-family="sans-serif" font-size="13" lengthAdjust="spacing" textLength="279.5652" x="254.9671" y="405.387">(default) or all rows with --include-categorized</text></g><g class="message" data-entity-1="part2" data-entity-2="part1" id="msg6"><polygon fill="#181818" points="67.9819,456.608,57.9819,460.608,67.9819,464.608,63.9819,460.608" style="stroke:#181818;stroke-width:1;"/><line style="stroke:#181818;stroke-width:1;stroke-dasharray:2,2;" x1="61.9819" x2="246.9671" y1="460.608" y2="460.608"/><text fill="#000000" font-family="sans-serif" font-size="13" lengthAdjust="spacing" textLength="101.2701" x="73.9819" y="437.093">Export summary</text><text fill="#000000" font-family="sans-serif" font-size="13" lengthAdjust="spacing" textLength="156.4032" x="73.9819" y="454.799">(row count + output path)</text></g><path d="M20,482.608 L163.4751,482.608 L163.4751,492.314 L153.4751,502.314 L20,502.314 L20,482.608" fill="#EEEEEE" style="stroke:#000000;stroke-width:1.5;"/><rect fill="none" height="283.8842" style="stroke:#000000;stroke-width:1.5;" width="817.6454" x="20" y="482.608"/><text fill="#000000" font-family="sans-serif" font-size="13" font-weight="bold" lengthAdjust="spacing" textLength="98.4751" x="35" y="497.505">Manual Review</text><g class="message" data-entity-1="part1" data-entity-2="part4" id="msg7"><polygon fill="#181818" points="728.8877,539.7261,738.8877,543.7261,728.8877,547.7261,732.8877,543.7261" style="stroke:#181818;stroke-width:1;"/><line style="stroke:#181818;stroke-width:1;" x1="56.9819" x2="734.8877" y1="543.7261" y2="543.7261"/><text fill="#000000" font-family="sans-serif" font-size="13" lengthAdjust="spacing" textLength="164.0602" x="63.9819" y="520.2111">Edit category/subcategory,</text><text fill="#000000" font-family="sans-serif" font-size="13" lengthAdjust="spacing" textLength="248.5472" x="63.9819" y="537.9171">project_tags, reviewed, review_comment</text></g><path d="M61,556.7261 L61,760.7261 L438,760.7261 L438,566.7261 L428,556.7261 L61,556.7261" fill="#FEFFDD" style="stroke:#181818;stroke-width:0.5;"/><path d="M428,556.7261 L428,566.7261 L438,566.7261 L428,556.7261" fill="#FEFFDD" style="stroke:#181818;stroke-width:0.5;"/><text fill="#000000" font-family="sans-serif" font-size="13" lengthAdjust="spacing" textLength="134.8621" x="67" y="575.6231">Keep key fields stable:</text><text fill="#000000" font-family="sans-serif" font-size="13" lengthAdjust="spacing" textLength="93.7821" x="67" y="593.3291">- transaction_id</text><text fill="#000000" font-family="sans-serif" font-size="13" lengthAdjust="spacing" textLength="76.0241" x="67" y="611.0351">- description</text><text fill="#000000" font-family="sans-serif" font-size="13" lengthAdjust="spacing" textLength="37.83" x="67" y="628.7411">- bank</text><text fill="#000000" font-family="sans-serif" font-size="13" lengthAdjust="spacing" textLength="91.0651" x="67" y="646.4472">- account_label</text><text fill="#000000" font-family="sans-serif" font-size="13" lengthAdjust="spacing" textLength="3.38" x="67" y="664.1532">&#160;</text><text fill="#000000" font-family="sans-serif" font-size="13" lengthAdjust="spacing" textLength="26.546" x="67" y="681.8592">Use:</text><text fill="#000000" font-family="sans-serif" font-size="13" lengthAdjust="spacing" textLength="356.5642" x="67" y="699.5652">- category/subcategory for manual transaction corrections</text><text fill="#000000" font-family="sans-serif" font-size="13" lengthAdjust="spacing" textLength="249.9902" x="67" y="717.2712">- project_tags for manual project tagging</text><text fill="#000000" font-family="sans-serif" font-size="13" lengthAdjust="spacing" textLength="195.2471" x="67" y="734.9772">- reviewed for progress tracking</text><text fill="#000000" font-family="sans-serif" font-size="13" lengthAdjust="spacing" textLength="217.5422" x="67" y="752.6833">- review_comment for analyst notes</text><path d="M10,780.4923 L150.3941,780.4923 L150.3941,790.1983 L140.3941,800.1983 L10,800.1983 L10,780.4923" fill="#EEEEEE" style="stroke:#000000;stroke-width:1.5;"/><rect fill="none" height="549.6902" style="stroke:#000000;stroke-width:1.5;" width="1185.8762" x="10" y="780.4923"/><text fill="#000000" font-family="sans-serif" font-size="13" font-weight="bold" lengthAdjust="spacing" textLength="95.3941" x="25" y="795.3893">Review Import</text><g class="message" data-entity-1="part1" data-entity-2="part2" id="msg8"><polygon fill="#181818" points="235.9671,837.6103,245.9671,841.6103,235.9671,845.6103,239.9671,841.6103" style="stroke:#181818;stroke-width:1;"/><line style="stroke:#181818;stroke-width:1;" x1="56.9819" x2="241.9671" y1="841.6103" y2="841.6103"/><text fill="#000000" font-family="sans-serif" font-size="13" lengthAdjust="spacing" textLength="85.8261" x="63.9819" y="818.0953">review-import</text><text fill="#000000" font-family="sans-serif" font-size="13" lengthAdjust="spacing" textLength="141.9731" x="63.9819" y="835.8013">[with flags OR defaults]</text></g><path d="M168.2333,856.6103 L230.5363,856.6103 L230.5363,866.3163 L220.5363,876.3163 L168.2333,876.3163 L168.2333,856.6103" fill="#EEEEEE" style="stroke:#000000;stroke-width:1.5;"/><rect fill="none" height="82.118" style="stroke:#000000;stroke-width:1.5;" width="344.629" x="168.2333" y="856.6103"/><text fill="#000000" font-family="sans-serif" font-size="13" font-weight="bold" lengthAdjust="spacing" textLength="17.303" x="183.2333" y="871.5073">alt</text><text fill="#000000" font-family="sans-serif" font-size="11" font-weight="bold" lengthAdjust="spacing" textLength="80.6954" x="245.5363" y="870.3692">[flags omitted]</text><g class="message" data-entity-1="part2" data-entity-2="part2" id="msg9"><line style="stroke:#181818;stroke-width:1;" x1="247.9671" x2="289.9671" y1="917.7284" y2="917.7284"/><line style="stroke:#181818;stroke-width:1;" x1="289.9671" x2="289.9671" y1="917.7284" y2="930.7284"/><line style="stroke:#181818;stroke-width:1;" x1="248.9671" x2="289.9671" y1="930.7284" y2="930.7284"/><polygon fill="#181818" points="258.9671,926.7284,248.9671,930.7284,258.9671,934.7284,254.9671,930.7284" style="stroke:#181818;stroke-width:1;"/><text fill="#000000" font-family="sans-serif" font-size="13" lengthAdjust="spacing" textLength="161.6551" x="254.9671" y="894.2133">Resolve defaults from .env</text><text fill="#000000" font-family="sans-serif" font-size="13" lengthAdjust="spacing" textLength="245.8952" x="254.9671" y="911.9194">(processed + transaction override paths)</text></g><g class="message" data-entity-1="part2" data-entity-2="part5" id="msg10"><polygon fill="#181818" points="917.615,965.4344,927.615,969.4344,917.615,973.4344,921.615,969.4344" style="stroke:#181818;stroke-width:1;"/><line style="stroke:#181818;stroke-width:1;" x1="247.9671" x2="923.615" y1="969.4344" y2="969.4344"/><text fill="#000000" font-family="sans-serif" font-size="13" lengthAdjust="spacing" textLength="214.5132" x="254.9671" y="963.6254">Load existing transaction overrides</text></g><g class="message" data-entity-1="part2" data-entity-2="part6" id="msg11"><polygon fill="#181818" points="1091.7304,997.1404,1101.7304,1001.1404,1091.7304,1005.1404,1095.7304,1001.1404" style="stroke:#181818;stroke-width:1;"/><line style="stroke:#181818;stroke-width:1;" x1="247.9671" x2="1097.7304" y1="1001.1404" y2="1001.1404"/><text fill="#000000" font-family="sans-serif" font-size="13" lengthAdjust="spacing" textLength="158.4181" x="254.9671" y="995.3314">Load existing review state</text></g><g class="message" data-entity-1="part2" data-entity-2="part4" id="msg12"><polygon fill="#181818" points="728.8877,1028.8464,738.8877,1032.8464,728.8877,1036.8464,732.8877,1032.8464" style="stroke:#181818;stroke-width:1;"/><line style="stroke:#181818;stroke-width:1;" x1="247.9671" x2="734.8877" y1="1032.8464" y2="1032.8464"/><text fill="#000000" font-family="sans-serif" font-size="13" lengthAdjust="spacing" textLength="122.6811" x="254.9671" y="1027.0374">Read reviewed rows</text></g><g class="message" data-entity-1="part2" data-entity-2="part2" id="msg13"><line style="stroke:#181818;stroke-width:1;" x1="247.9671" x2="289.9671" y1="1064.5524" y2="1064.5524"/><line style="stroke:#181818;stroke-width:1;" x1="289.9671" x2="289.9671" y1="1064.5524" y2="1077.5524"/><line style="stroke:#181818;stroke-width:1;" x1="248.9671" x2="289.9671" y1="1077.5524" y2="1077.5524"/><polygon fill="#181818" points="258.9671,1073.5524,248.9671,1077.5524,258.9671,1081.5524,254.9671,1077.5524" style="stroke:#181818;stroke-width:1;"/><text fill="#000000" font-family="sans-serif" font-size="13" lengthAdjust="spacing" textLength="286.2733" x="254.9671" y="1058.7434">Validate rows + build transaction-level changes</text></g><path d="M20,1092.5524 L82.303,1092.5524 L82.303,1102.2584 L72.303,1112.2584 L20,1112.2584 L20,1092.5524" fill="#EEEEEE" style="stroke:#000000;stroke-width:1.5;"/><rect fill="none" height="230.63" style="stroke:#000000;stroke-width:1.5;" width="1165.8762" x="20" y="1092.5524"/><text fill="#000000" font-family="sans-serif" font-size="13" font-weight="bold" lengthAdjust="spacing" textLength="17.303" x="35" y="1107.4494">alt</text><text fill="#000000" font-family="sans-serif" font-size="11" font-weight="bold" lengthAdjust="spacing" textLength="95.0833" x="97.303" y="1106.3113">[dry-run enabled]</text><g class="message" data-entity-1="part2" data-entity-2="part1" id="msg14"><polygon fill="#181818" points="67.9819,1149.6705,57.9819,1153.6705,67.9819,1157.6705,63.9819,1153.6705" style="stroke:#181818;stroke-width:1;"/><line style="stroke:#181818;stroke-width:1;stroke-dasharray:2,2;" x1="61.9819" x2="246.9671" y1="1153.6705" y2="1153.6705"/><text fill="#000000" font-family="sans-serif" font-size="13" lengthAdjust="spacing" textLength="148.2781" x="73.9819" y="1130.1555">Preview upsert counters</text><text fill="#000000" font-family="sans-serif" font-size="13" lengthAdjust="spacing" textLength="79.9371" x="73.9819" y="1147.8615">(no file write)</text></g><line style="stroke:#000000;stroke-width:1;stroke-dasharray:2,2;" x1="20" x2="1185.8762" y1="1162.6705" y2="1162.6705"/><text fill="#000000" font-family="sans-serif" font-size="11" font-weight="bold" lengthAdjust="spacing" textLength="77.7254" x="25" y="1174.4294">[apply import]</text><g class="message" data-entity-1="part2" data-entity-2="part5" id="msg15"><polygon fill="#181818" points="917.615,1198.3584,927.615,1202.3584,917.615,1206.3584,921.615,1202.3584" style="stroke:#181818;stroke-width:1;"/><line style="stroke:#181818;stroke-width:1;" x1="247.9671" x2="923.615" y1="1202.3584" y2="1202.3584"/><text fill="#000000" font-family="sans-serif" font-size="13" lengthAdjust="spacing" textLength="118.0921" x="254.9671" y="1196.5494">Backup existing file</text></g><g class="message" data-entity-1="part2" data-entity-2="part5" id="msg16"><polygon fill="#181818" points="917.615,1230.0644,927.615,1234.0644,917.615,1238.0644,921.615,1234.0644" style="stroke:#181818;stroke-width:1;"/><line style="stroke:#181818;stroke-width:1;" x1="247.9671" x2="923.615" y1="1234.0644" y2="1234.0644"/><text fill="#000000" font-family="sans-serif" font-size="13" lengthAdjust="spacing" textLength="257.3612" x="254.9671" y="1228.2554">Upsert transaction overrides and write file</text></g><g class="message" data-entity-1="part2" data-entity-2="part6" id="msg17"><polygon fill="#181818" points="1091.7304,1261.7704,1101.7304,1265.7704,1091.7304,1269.7704,1095.7304,1265.7704" style="stroke:#181818;stroke-width:1;"/><line style="stroke:#181818;stroke-width:1;" x1="247.9671" x2="1097.7304" y1="1265.7704" y2="1265.7704"/><text fill="#000000" font-family="sans-serif" font-size="13" lengthAdjust="spacing" textLength="201.2661" x="254.9671" y="1259.9614">Upsert review state and write file</text></g><g class="message" data-entity-1="part2" data-entity-2="part1" id="msg18"><polygon fill="#181818" points="67.9819,1311.1824,57.9819,1315.1824,67.9819,1319.1824,63.9819,1315.1824" style="stroke:#181818;stroke-width:1;"/><line style="stroke:#181818;stroke-width:1;stroke-dasharray:2,2;" x1="61.9819" x2="246.9671" y1="1315.1824" y2="1315.1824"/><text fill="#000000" font-family="sans-serif" font-size="13" lengthAdjust="spacing" textLength="103.7271" x="73.9819" y="1291.6674">Import summary</text><text fill="#000000" font-family="sans-serif" font-size="13" lengthAdjust="spacing" textLength="166.9852" x="73.9819" y="1309.3734">(updated/inserted/skipped)</text></g><path d="M20,1344.1824 L201.4221,1344.1824 L201.4221,1353.8885 L191.4221,1363.8885 L20,1363.8885 L20,1344.1824" fill="#EEEEEE" style="stroke:#000000;stroke-width:1.5;"/><rect fill="none" height="181.9421" style="stroke:#000000;stroke-width:1.5;" width="1305.3343" x="20" y="1344.1824"/><text fill="#000000" font-family="sans-serif" font-size="13" font-weight="bold" lengthAdjust="spacing" textLength="136.4221" x="35" y="1359.0795">Apply New Overrides</text><g class="message" data-entity-1="part1" data-entity-2="part7" id="msg19"><polygon fill="#181818" points="1243.3515,1401.3005,1253.3515,1405.3005,1243.3515,1409.3005,1247.3515,1405.3005" style="stroke:#181818;stroke-width:1;"/><line style="stroke:#181818;stroke-width:1;" x1="56.9819" x2="1249.3515" y1="1405.3005" y2="1405.3005"/><text fill="#000000" font-family="sans-serif" font-size="13" lengthAdjust="spacing" textLength="89.0111" x="63.9819" y="1381.7855">Run transform</text><text fill="#000000" font-family="sans-serif" font-size="13" lengthAdjust="spacing" textLength="201.2922" x="63.9819" y="1399.4915">or review-import --run-transform</text></g><g class="message" data-entity-1="part7" data-entity-2="part5" id="msg20"><polygon fill="#181818" points="940.615,1433.0065,930.615,1437.0065,940.615,1441.0065,936.615,1437.0065" style="stroke:#181818;stroke-width:1;"/><line style="stroke:#181818;stroke-width:1;" x1="934.615" x2="1254.3515" y1="1437.0065" y2="1437.0065"/><text fill="#000000" font-family="sans-serif" font-size="13" lengthAdjust="spacing" textLength="145.5091" x="946.615" y="1431.1975">Load updated overrides</text></g><g class="message" data-entity-1="part7" data-entity-2="part6" id="msg21"><polygon fill="#181818" points="1114.7304,1464.7125,1104.7304,1468.7125,1114.7304,1472.7125,1110.7304,1468.7125" style="stroke:#181818;stroke-width:1;"/><line style="stroke:#181818;stroke-width:1;" x1="1108.7304" x2="1254.3515" y1="1468.7125" y2="1468.7125"/><text fill="#000000" font-family="sans-serif" font-size="13" lengthAdjust="spacing" textLength="127.6211" x="1120.7304" y="1462.9035">Load review markers</text></g><g class="message" data-entity-1="part7" data-entity-2="part1" id="msg22"><polygon fill="#181818" points="67.9819,1514.1246,57.9819,1518.1246,67.9819,1522.1246,63.9819,1518.1246" style="stroke:#181818;stroke-width:1;"/><line style="stroke:#181818;stroke-width:1;stroke-dasharray:2,2;" x1="61.9819" x2="1254.3515" y1="1518.1246" y2="1518.1246"/><text fill="#000000" font-family="sans-serif" font-size="13" lengthAdjust="spacing" textLength="153.3091" x="73.9819" y="1494.6095">New categorized outputs</text><text fill="#000000" font-family="sans-serif" font-size="13" lengthAdjust="spacing" textLength="291.0312" x="73.9819" y="1512.3156">with reviewed projected into normalized output</text></g><?plantuml-src jLN1Rjiu4BthAmOvDKZbteqYW3THK6DJEv3JTB5r8T3IMEQQ8hKaPSVz-eueIg40RMvxiapD3EUzUMzakHK8TynYgJJ_nInN4b8ySJp3bwPYCkOojWUC7vMguK6eSnInt2eD2yd4nTYePjhodDTCMhZQSybaZfbLId1PmjtZyWgOQN-ZWbcsOmRXocec3LMXkqmcbQwOuB-mcENcvA9Nw_Jhud7vTt8_hZxAqwx9sQimhoufJLwMoNVu_7dF1TxUJb-NgHDgpGiqimkhX4jy_YjRloHfkhnFDa5MLpypbhYPKHl_DcY3YxBDy-8vcUXlJtY0iahiggUBrUQ104LHgLLJz-GchxNIDl8iGdpRSZI7xjOOtTkj_77czW1xmKe3wnGAtBD6MFCpOiBwOrLnQx68A7seag9HueH3FEorgc26yhIL3ylLOdMNP4_f-YxPR9Bxx6dn_2L2EPHuex-jn0fu6n4GEmBxm929EJmg2grH6swe7uy477_ZX3byrzmYD3BlTVSMhzNPREK7t_araDAO4EuO71anAJ8NJO5naDrTG3TuFkUUNp1DLJ5zeOfK0NBLq9nkG3MsRYpKp1wk7N8_cwzCDapu4OMpwHjF2cx1ttlvP9fT__nnAskj_i7SPZHwyz73mQ9_od9LLIXj91L1rxmyM53xmKL_8jPmn0liEOh2jBGHqVCeXb2zlA034c-kUTqUqByTaqVwORd3bWcsGn55tupBdUeKIA1GTK23siIDrjXvYp93C666FoSTb2KPd29xe2wANfSQZMahvySmeCVlmfXdjkN2j0DmJ-4al4kMrNikuTN_vf8FX2Gd88JhPaHJlq2SUCnrw9jmaNWxu2kPeLs4KoNCEpuQ4j-paJFdm7zhaH6-5_8ixJFip7C3kuQB8kma5dX20Vc1oPAwQTagz2NMZGIKhVucVFNa6sfgW-GlfphoF34c5RIh5ywjkOaOGLkKrRMuG3UdQPh-89tGl0UyROdfo6_TZPDCagAAxk9HWJ6nla38w6HU2BSJOB16chgbjFZ4PLkC7ioHrpKMdH821IySz1NTj1xc7UXu-2xG68dluTEnfMKxrZSrH1E9XuXeIFqFqVaM0vsDCYRKvYaXY4UQPHWUSj5Y2JTsjqLfzCv-WmxzYg0dBgqAFnvTWYFfDm00?></g></svg>