<?plantuml 1.2026.2?><svg xmlns="http://www.w3.org/2000/svg" xmlns:xlink="http://www.w3.org/1999/xlink" contentStyleType="text/css" data-diagram-type="ACTIVITY" height="2258px" preserveAspectRatio="none" style="width:1091px;height:2258px;background:#FFFFFF;" version="1.1" viewBox="0 0 1091 2258" width="1091px" zoomAndPan="magnify"><title>review-import Guardrails and Decision Flow</title><defs/><g><g class="title" data-source-line="1"><text fill="#000000" font-family="sans-serif" font-size="14" font-weight="bold" lengthAdjust="spacing" textLength="304.7088" x="391.6565" y="34.9659">review-import Guardrails and Decision Flow</text></g><ellipse cx="617.7902" cy="60.0679" fill="#222222" rx="10" ry="10" style="stroke:#222222;stroke-width:1;"/><rect fill="#F1F1F1" height="36.3441" rx="12.5" ry="12.5" style="stroke:#181818;stroke-width:0.5;" width="346.7024" x="444.439" y="90.0679"/><text fill="#000000" font-family="sans-serif" font-size="12" lengthAdjust="spacing" textLength="326.7024" x="454.439" y="112.896">Resolve review + transaction override + review state paths</text><rect fill="#F1F1F1" height="36.3441" rx="12.5" ry="12.5" style="stroke:#181818;stroke-width:0.5;" width="197.1453" x="519.2175" y="146.412"/><text fill="#000000" font-family="sans-serif" font-size="12" lengthAdjust="spacing" textLength="177.1453" x="529.2175" y="169.2401">Load transaction override store</text><polygon fill="#F1F1F1" points="559.6171,252.2471,675.9633,252.2471,687.9633,264.2471,675.9633,276.2471,559.6171,276.2471,547.6171,264.2471,559.6171,252.2471" style="stroke:#181818;stroke-width:0.5;"/><text fill="#000000" font-family="sans-serif" font-size="11" lengthAdjust="spacing" textLength="116.3462" x="559.6171" y="268.5151">--allow-load-warnings?</text><text fill="#000000" font-family="sans-serif" font-size="11" lengthAdjust="spacing" textLength="17.0829" x="530.5342" y="261.0241">yes</text><text fill="#000000" font-family="sans-serif" font-size="11" lengthAdjust="spacing" textLength="13.4529" x="687.9633" y="261.0241">no</text><rect fill="#F1F1F1" height="36.3441" rx="12.5" ry="12.5" style="stroke:#181818;stroke-width:0.5;" width="179.5891" x="438.7101" y="286.2471"/><text fill="#000000" font-family="sans-serif" font-size="12" lengthAdjust="spacing" textLength="159.5891" x="448.7101" y="309.0752">Print warnings and continue</text><rect fill="#F1F1F1" height="36.3441" rx="12.5" ry="12.5" style="stroke:#181818;stroke-width:0.5;" width="137.5528" x="638.2992" y="286.2471"/><text fill="#000000" font-family="sans-serif" font-size="12" lengthAdjust="spacing" textLength="117.5528" x="648.2992" y="309.0752">Abort import (exit=1)</text><ellipse cx="707.0757" cy="353.5912" fill="none" rx="11" ry="11" style="stroke:#222222;stroke-width:1;"/><ellipse cx="707.0757" cy="353.5912" fill="#222222" rx="6" ry="6" style="stroke:#222222;stroke-width:1;"/><polygon fill="#F1F1F1" points="555.7451,202.7561,679.8352,202.7561,691.8352,214.7561,679.8352,226.7561,555.7451,226.7561,543.7451,214.7561,555.7451,202.7561" style="stroke:#181818;stroke-width:0.5;"/><text fill="#000000" font-family="sans-serif" font-size="11" lengthAdjust="spacing" textLength="17.0829" x="621.7902" y="238.5151">yes</text><text fill="#000000" font-family="sans-serif" font-size="11" lengthAdjust="spacing" textLength="124.0901" x="555.7451" y="219.0241">override load warnings?</text><polygon fill="#F1F1F1" points="617.7902,384.5912,629.7902,396.5912,617.7902,408.5912,605.7902,396.5912,617.7902,384.5912" style="stroke:#181818;stroke-width:0.5;"/><rect fill="#F1F1F1" height="36.3441" rx="12.5" ry="12.5" style="stroke:#181818;stroke-width:0.5;" width="120.0087" x="557.7858" y="428.5912"/><text fill="#000000" font-family="sans-serif" font-size="12" lengthAdjust="spacing" textLength="100.0087" x="567.7858" y="451.4193">Read review table</text><rect fill="#F1F1F1" height="36.3441" rx="12.5" ry="12.5" style="stroke:#181818;stroke-width:0.5;" width="156.813" x="539.3837" y="484.9353"/><text fill="#000000" font-family="sans-serif" font-size="12" lengthAdjust="spacing" textLength="136.813" x="549.3837" y="507.7634">Check required columns</text><rect fill="#F1F1F1" height="36.3441" rx="12.5" ry="12.5" style="stroke:#181818;stroke-width:0.5;" width="141.3329" x="547.1237" y="585.2794"/><text fill="#000000" font-family="sans-serif" font-size="12" lengthAdjust="spacing" textLength="121.3329" x="557.1237" y="608.1075">Read next review row</text><polygon fill="#F1F1F1" points="557.6206,740.6054,677.9598,740.6054,689.9598,752.6054,677.9598,764.6054,557.6206,764.6054,545.6206,752.6054,557.6206,740.6054" style="stroke:#181818;stroke-width:0.5;"/><text fill="#000000" font-family="sans-serif" font-size="11" lengthAdjust="spacing" textLength="120.3392" x="557.6206" y="756.8734">transaction_id present?</text><text fill="#000000" font-family="sans-serif" font-size="11" lengthAdjust="spacing" textLength="17.0829" x="528.5377" y="749.3825">yes</text><text fill="#000000" font-family="sans-serif" font-size="11" lengthAdjust="spacing" textLength="13.4529" x="689.9598" y="749.3825">no</text><polygon fill="#F1F1F1" points="325.0444,774.6054,417.6307,774.6054,429.6307,786.6054,417.6307,798.6054,325.0444,798.6054,313.0444,786.6054,325.0444,774.6054" style="stroke:#181818;stroke-width:0.5;"/><text fill="#000000" font-family="sans-serif" font-size="11" lengthAdjust="spacing" textLength="92.5863" x="325.0444" y="790.8734">category present?</text><text fill="#000000" font-family="sans-serif" font-size="11" lengthAdjust="spacing" textLength="17.0829" x="295.9615" y="783.3825">yes</text><text fill="#000000" font-family="sans-serif" font-size="11" lengthAdjust="spacing" textLength="13.4529" x="429.6307" y="783.3825">no</text><polygon fill="#F1F1F1" points="112.1795,808.6054,255.8605,808.6054,267.8605,820.6054,255.8605,832.6054,112.1795,832.6054,100.1795,820.6054,112.1795,808.6054" style="stroke:#181818;stroke-width:0.5;"/><text fill="#000000" font-family="sans-serif" font-size="11" lengthAdjust="spacing" textLength="143.681" x="112.1795" y="824.8734">category == Uncategorized?</text><text fill="#000000" font-family="sans-serif" font-size="11" lengthAdjust="spacing" textLength="17.0829" x="83.0967" y="817.3825">yes</text><text fill="#000000" font-family="sans-serif" font-size="11" lengthAdjust="spacing" textLength="13.4529" x="267.8605" y="817.3825">no</text><rect fill="#F1F1F1" height="36.3441" rx="12.5" ry="12.5" style="stroke:#181818;stroke-width:0.5;" width="133.6168" x="11" y="842.6054"/><text fill="#000000" font-family="sans-serif" font-size="12" lengthAdjust="spacing" textLength="113.6168" x="21" y="865.4335">Skip category action</text><rect fill="#F1F1F1" height="36.3441" rx="12.5" ry="12.5" style="stroke:#181818;stroke-width:0.5;" width="251.2296" x="164.6168" y="842.6054"/><text fill="#000000" font-family="sans-serif" font-size="12" lengthAdjust="spacing" textLength="231.2296" x="174.6168" y="865.4335">Build transaction category override entry</text><polygon fill="#F1F1F1" points="184.02,884.9495,196.02,896.9495,184.02,908.9495,172.02,896.9495,184.02,884.9495" style="stroke:#181818;stroke-width:0.5;"/><rect fill="#F1F1F1" height="36.3441" rx="12.5" ry="12.5" style="stroke:#181818;stroke-width:0.5;" width="205.6173" x="455.8465" y="858.0964"/><text fill="#000000" font-family="sans-serif" font-size="12" lengthAdjust="spacing" textLength="185.6173" x="465.8465" y="880.9245">Skip row (invalid category action)</text><polygon fill="#F1F1F1" points="502.946,808.6054,614.3642,808.6054,626.3642,820.6054,614.3642,832.6054,502.946,832.6054,490.946,820.6054,502.946,808.6054" style="stroke:#181818;stroke-width:0.5;"/><text fill="#000000" font-family="sans-serif" font-size="11" lengthAdjust="spacing" textLength="17.0829" x="562.6551" y="844.3643">yes</text><text fill="#000000" font-family="sans-serif" font-size="11" lengthAdjust="spacing" textLength="111.4182" x="502.946" y="824.8734">subcategory present?</text><polygon fill="#F1F1F1" points="558.6551,919.9314,570.6551,931.9314,558.6551,943.9314,546.6551,931.9314,558.6551,919.9314" style="stroke:#181818;stroke-width:0.5;"/><polygon fill="#F1F1F1" points="371.3376,949.9314,383.3376,961.9314,371.3376,973.9314,359.3376,961.9314,371.3376,949.9314" style="stroke:#181818;stroke-width:0.5;"/><rect fill="#F1F1F1" height="36.3441" rx="12.5" ry="12.5" style="stroke:#181818;stroke-width:0.5;" width="301.558" x="713.4638" y="774.6054"/><text fill="#000000" font-family="sans-serif" font-size="12" lengthAdjust="spacing" textLength="281.558" x="723.4638" y="797.4335">Skip row (missing transaction_id for category edit)</text><polygon fill="#F1F1F1" points="617.7902,979.9314,629.7902,991.9314,617.7902,1003.9314,605.7902,991.9314,617.7902,979.9314" style="stroke:#181818;stroke-width:0.5;"/><polygon fill="#F1F1F1" points="519.6324,691.1145,715.948,691.1145,727.948,703.1145,715.948,715.1145,519.6324,715.1145,507.6324,703.1145,519.6324,691.1145" style="stroke:#181818;stroke-width:0.5;"/><text fill="#000000" font-family="sans-serif" font-size="11" lengthAdjust="spacing" textLength="17.0829" x="621.7902" y="726.8734">yes</text><text fill="#000000" font-family="sans-serif" font-size="11" lengthAdjust="spacing" textLength="196.3156" x="519.6324" y="707.3825">category/subcategory edit requested?</text><polygon fill="#F1F1F1" points="617.7902,1023.9314,629.7902,1035.9314,617.7902,1047.9314,605.7902,1035.9314,617.7902,1023.9314" style="stroke:#181818;stroke-width:0.5;"/><polygon fill="#F1F1F1" points="557.6206,1124.9224,677.9598,1124.9224,689.9598,1136.9224,677.9598,1148.9224,557.6206,1148.9224,545.6206,1136.9224,557.6206,1124.9224" style="stroke:#181818;stroke-width:0.5;"/><text fill="#000000" font-family="sans-serif" font-size="11" lengthAdjust="spacing" textLength="120.3392" x="557.6206" y="1141.1903">transaction_id present?</text><text fill="#000000" font-family="sans-serif" font-size="11" lengthAdjust="spacing" textLength="17.0829" x="528.5377" y="1133.6994">yes</text><text fill="#000000" font-family="sans-serif" font-size="11" lengthAdjust="spacing" textLength="13.4529" x="689.9598" y="1133.6994">no</text><rect fill="#F1F1F1" height="36.3441" rx="12.5" ry="12.5" style="stroke:#181818;stroke-width:0.5;" width="219.1294" x="397.0788" y="1158.9224"/><text fill="#000000" font-family="sans-serif" font-size="12" lengthAdjust="spacing" textLength="199.1294" x="407.0788" y="1181.7505">Build transaction project-tags entry</text><rect fill="#F1F1F1" height="36.3441" rx="12.5" ry="12.5" style="stroke:#181818;stroke-width:0.5;" width="185.4572" x="636.2082" y="1158.9224"/><text fill="#000000" font-family="sans-serif" font-size="12" lengthAdjust="spacing" textLength="165.4572" x="646.2082" y="1181.7505">Skip row (invalid project tags)</text><polygon fill="#F1F1F1" points="617.7902,1201.2665,629.7902,1213.2665,617.7902,1225.2665,605.7902,1213.2665,617.7902,1201.2665" style="stroke:#181818;stroke-width:0.5;"/><polygon fill="#F1F1F1" points="555.8496,1075.4314,679.7307,1075.4314,691.7307,1087.4314,679.7307,1099.4314,555.8496,1099.4314,543.8496,1087.4314,555.8496,1075.4314" style="stroke:#181818;stroke-width:0.5;"/><text fill="#000000" font-family="sans-serif" font-size="11" lengthAdjust="spacing" textLength="17.0829" x="621.7902" y="1111.1903">yes</text><text fill="#000000" font-family="sans-serif" font-size="11" lengthAdjust="spacing" textLength="123.8811" x="555.8496" y="1091.6994">project_tags populated?</text><polygon fill="#F1F1F1" points="617.7902,1245.2665,629.7902,1257.2665,617.7902,1269.2665,605.7902,1257.2665,617.7902,1245.2665" style="stroke:#181818;stroke-width:0.5;"/><polygon fill="#F1F1F1" points="557.6206,1338.7574,677.9598,1338.7574,689.9598,1350.7574,677.9598,1362.7574,557.6206,1362.7574,545.6206,1350.7574,557.6206,1338.7574" style="stroke:#181818;stroke-width:0.5;"/><text fill="#000000" font-family="sans-serif" font-size="11" lengthAdjust="spacing" textLength="120.3392" x="557.6206" y="1355.0254">transaction_id present?</text><text fill="#000000" font-family="sans-serif" font-size="11" lengthAdjust="spacing" textLength="17.0829" x="528.5377" y="1347.5345">yes</text><text fill="#000000" font-family="sans-serif" font-size="11" lengthAdjust="spacing" textLength="13.4529" x="689.9598" y="1347.5345">no</text><rect fill="#F1F1F1" height="36.3441" rx="12.5" ry="12.5" style="stroke:#181818;stroke-width:0.5;" width="196.6413" x="420.656" y="1372.7574"/><text fill="#000000" font-family="sans-serif" font-size="12" lengthAdjust="spacing" textLength="176.6413" x="430.656" y="1395.5855">Build review-state update entry</text><rect fill="#F1F1F1" height="36.3441" rx="12.5" ry="12.5" style="stroke:#181818;stroke-width:0.5;" width="158.613" x="637.2972" y="1372.7574"/><text fill="#000000" font-family="sans-serif" font-size="12" lengthAdjust="spacing" textLength="138.613" x="647.2972" y="1395.5855">Skip review-state update</text><polygon fill="#F1F1F1" points="617.7902,1415.1016,629.7902,1427.1016,617.7902,1439.1016,605.7902,1427.1016,617.7902,1415.1016" style="stroke:#181818;stroke-width:0.5;"/><polygon fill="#F1F1F1" points="517.7734,1289.2665,717.8069,1289.2665,729.8069,1301.2665,717.8069,1313.2665,517.7734,1313.2665,505.7734,1301.2665,517.7734,1289.2665" style="stroke:#181818;stroke-width:0.5;"/><text fill="#000000" font-family="sans-serif" font-size="11" lengthAdjust="spacing" textLength="17.0829" x="621.7902" y="1325.0254">yes</text><text fill="#000000" font-family="sans-serif" font-size="11" lengthAdjust="spacing" textLength="200.0335" x="517.7734" y="1305.5345">reviewed/review_comment populated?</text><polygon fill="#F1F1F1" points="617.7902,1459.1016,629.7902,1471.1016,617.7902,1483.1016,605.7902,1471.1016,617.7902,1459.1016" style="stroke:#181818;stroke-width:0.5;"/><polygon fill="#F1F1F1" points="589.3664,641.6235,646.214,641.6235,658.214,653.6235,646.214,665.6235,589.3664,665.6235,577.3664,653.6235,589.3664,641.6235" style="stroke:#181818;stroke-width:0.5;"/><text fill="#000000" font-family="sans-serif" font-size="11" lengthAdjust="spacing" textLength="17.0829" x="621.7902" y="677.3825">yes</text><text fill="#000000" font-family="sans-serif" font-size="11" lengthAdjust="spacing" textLength="56.8476" x="589.3664" y="657.8915">row exists?</text><polygon fill="#F1F1F1" points="617.7902,1503.1016,629.7902,1515.1016,617.7902,1527.1016,605.7902,1515.1016,617.7902,1503.1016" style="stroke:#181818;stroke-width:0.5;"/><polygon fill="#F1F1F1" points="617.7902,541.2794,629.7902,553.2794,617.7902,565.2794,605.7902,553.2794,617.7902,541.2794" style="stroke:#181818;stroke-width:0.5;"/><polygon fill="#F1F1F1" points="587.5734,1547.1016,648.007,1547.1016,660.007,1559.1016,648.007,1571.1016,587.5734,1571.1016,575.5734,1559.1016,587.5734,1547.1016" style="stroke:#181818;stroke-width:0.5;"/><text fill="#000000" font-family="sans-serif" font-size="11" lengthAdjust="spacing" textLength="60.4336" x="587.5734" y="1563.3695">more rows?</text><text fill="#000000" font-family="sans-serif" font-size="11" lengthAdjust="spacing" textLength="17.0829" x="660.007" y="1555.8786">yes</text><rect fill="#F1F1F1" height="36.3441" rx="12.5" ry="12.5" style="stroke:#181818;stroke-width:0.5;" width="232.1015" x="501.7394" y="1591.1016"/><text fill="#000000" font-family="sans-serif" font-size="12" lengthAdjust="spacing" textLength="212.1015" x="511.7394" y="1613.9296">Upsert transaction entries in-memory</text><rect fill="#F1F1F1" height="36.3441" rx="12.5" ry="12.5" style="stroke:#181818;stroke-width:0.5;" width="237.2136" x="499.1834" y="1647.4457"/><text fill="#000000" font-family="sans-serif" font-size="12" lengthAdjust="spacing" textLength="217.2136" x="509.1834" y="1670.2738">Upsert review-state entries in-memory</text><rect fill="#F1F1F1" height="52.6882" rx="12.5" ry="12.5" style="stroke:#181818;stroke-width:0.5;" width="141.3569" x="547.1117" y="1753.2807"/><text fill="#000000" font-family="sans-serif" font-size="12" lengthAdjust="spacing" textLength="121.3569" x="557.1117" y="1776.1088">Return counters only;</text><text fill="#000000" font-family="sans-serif" font-size="12" lengthAdjust="spacing" textLength="48.0844" x="557.1117" y="1792.4529">No write</text><ellipse cx="617.7902" cy="1836.969" fill="none" rx="11" ry="11" style="stroke:#222222;stroke-width:1;"/><ellipse cx="617.7902" cy="1836.969" fill="#222222" rx="6" ry="6" style="stroke:#222222;stroke-width:1;"/><polygon fill="#F1F1F1" points="592.5619,1703.7898,643.0185,1703.7898,655.0185,1715.7898,643.0185,1727.7898,592.5619,1727.7898,580.5619,1715.7898,592.5619,1703.7898" style="stroke:#181818;stroke-width:0.5;"/><text fill="#000000" font-family="sans-serif" font-size="11" lengthAdjust="spacing" textLength="17.0829" x="621.7902" y="1739.5487">yes</text><text fill="#000000" font-family="sans-serif" font-size="11" lengthAdjust="spacing" textLength="50.4566" x="592.5619" y="1720.0577">--dry-run?</text><rect fill="#F1F1F1" height="52.6882" rx="12.5" ry="12.5" style="stroke:#181818;stroke-width:0.5;" width="310.282" x="462.6491" y="1939.4599"/><text fill="#000000" font-family="sans-serif" font-size="12" lengthAdjust="spacing" textLength="290.282" x="472.6491" y="1962.288">Create backup for changed transaction override file</text><text fill="#000000" font-family="sans-serif" font-size="12" lengthAdjust="spacing" textLength="207.9855" x="472.6491" y="1978.6321">(default timestamp or --backup-path)</text><polygon fill="#F1F1F1" points="593.0348,1889.969,642.5455,1889.969,654.5455,1901.969,642.5455,1913.969,593.0348,1913.969,581.0348,1901.969,593.0348,1889.969" style="stroke:#181818;stroke-width:0.5;"/><text fill="#000000" font-family="sans-serif" font-size="11" lengthAdjust="spacing" textLength="17.0829" x="621.7902" y="1925.7279">yes</text><text fill="#000000" font-family="sans-serif" font-size="11" lengthAdjust="spacing" textLength="49.5107" x="593.0348" y="1906.2369">--backup?</text><polygon fill="#F1F1F1" points="617.7902,2012.1481,629.7902,2024.1481,617.7902,2036.1481,605.7902,2024.1481,617.7902,2012.1481" style="stroke:#181818;stroke-width:0.5;"/><rect fill="#F1F1F1" height="36.3441" rx="12.5" ry="12.5" style="stroke:#181818;stroke-width:0.5;" width="241.1616" x="497.2094" y="2056.1481"/><text fill="#000000" font-family="sans-serif" font-size="12" lengthAdjust="spacing" textLength="221.1616" x="507.2094" y="2078.9762">Write merged transaction overrides file</text><rect fill="#F1F1F1" height="36.3441" rx="12.5" ry="12.5" style="stroke:#181818;stroke-width:0.5;" width="141.7889" x="546.8957" y="2112.4922"/><text fill="#000000" font-family="sans-serif" font-size="12" lengthAdjust="spacing" textLength="121.7889" x="556.8957" y="2135.3203">Write review state file</text><rect fill="#F1F1F1" height="36.3441" rx="12.5" ry="12.5" style="stroke:#181818;stroke-width:0.5;" width="208.9533" x="513.3135" y="2168.8364"/><text fill="#000000" font-family="sans-serif" font-size="12" lengthAdjust="spacing" textLength="188.9533" x="523.3135" y="2191.6644">Return counters and backup path</text><ellipse cx="617.7902" cy="2236.1805" fill="none" rx="11" ry="11" style="stroke:#222222;stroke-width:1;"/><ellipse cx="617.7902" cy="2236.1805" fill="#222222" rx="6" ry="6" style="stroke:#222222;stroke-width:1;"/><line style="stroke:#181818;stroke-width:1;" x1="617.7902" x2="617.7902" y1="70.0679" y2="90.0679"/><polygon fill="#181818" points="613.7902,80.0679,617.7902,90.0679,621.7902,80.0679,617.7902,84.0679" style="stroke:#181818;stroke-width:1;"/><line style="stroke:#181818;stroke-width:1;" x1="617.7902" x2="617.7902" y1="126.412" y2="146.412"/><polygon fill="#181818" points="613.7902,136.412,617.7902,146.412,621.7902,136.412,617.7902,140.412" style="stroke:#181818;stroke-width:1;"/><line style="stroke:#181818;stroke-width:1;" x1="707.0757" x2="707.0757" y1="322.5912" y2="342.5912"/><polygon fill="#181818" points="703.0757,332.5912,707.0757,342.5912,711.0757,332.5912,707.0757,336.5912" style="stroke:#181818;stroke-width:1;"/><line style="stroke:#181818;stroke-width:1;" x1="547.6171" x2="528.5047" y1="264.2471" y2="264.2471"/><line style="stroke:#181818;stroke-width:1;" x1="528.5047" x2="528.5047" y1="264.2471" y2="286.2471"/><polygon fill="#181818" points="524.5047,276.2471,528.5047,286.2471,532.5047,276.2471,528.5047,280.2471" style="stroke:#181818;stroke-width:1;"/><line style="stroke:#181818;stroke-width:1;" x1="687.9633" x2="707.0757" y1="264.2471" y2="264.2471"/><line style="stroke:#181818;stroke-width:1;" x1="707.0757" x2="707.0757" y1="264.2471" y2="286.2471"/><polygon fill="#181818" points="703.0757,276.2471,707.0757,286.2471,711.0757,276.2471,707.0757,280.2471" style="stroke:#181818;stroke-width:1;"/><line style="stroke:#181818;stroke-width:1;" x1="528.5047" x2="528.5047" y1="322.5912" y2="369.5912"/><line style="stroke:#181818;stroke-width:1;" x1="528.5047" x2="617.7902" y1="369.5912" y2="369.5912"/><line style="stroke:#181818;stroke-width:1;" x1="617.7902" x2="617.7902" y1="369.5912" y2="384.5912"/><polygon fill="#181818" points="613.7902,374.5912,617.7902,384.5912,621.7902,374.5912,617.7902,378.5912" style="stroke:#181818;stroke-width:1;"/><line style="stroke:#181818;stroke-width:1;" x1="617.7902" x2="617.7902" y1="226.7561" y2="252.2471"/><polygon fill="#181818" points="613.7902,242.2471,617.7902,252.2471,621.7902,242.2471,617.7902,246.2471" style="stroke:#181818;stroke-width:1;"/><line style="stroke:#181818;stroke-width:1;" x1="691.8352" x2="795.8521" y1="214.7561" y2="214.7561"/><polygon fill="#181818" points="791.8521,308.9191,795.8521,318.9191,799.8521,308.9191,795.8521,312.9191" style="stroke:#181818;stroke-width:1;"/><line style="stroke:#181818;stroke-width:1;" x1="795.8521" x2="795.8521" y1="214.7561" y2="396.5912"/><line style="stroke:#181818;stroke-width:1;" x1="795.8521" x2="629.7902" y1="396.5912" y2="396.5912"/><polygon fill="#181818" points="639.7902,392.5912,629.7902,396.5912,639.7902,400.5912,635.7902,396.5912" style="stroke:#181818;stroke-width:1;"/><line style="stroke:#181818;stroke-width:1;" x1="617.7902" x2="617.7902" y1="182.7561" y2="202.7561"/><polygon fill="#181818" points="613.7902,192.7561,617.7902,202.7561,621.7902,192.7561,617.7902,196.7561" style="stroke:#181818;stroke-width:1;"/><line style="stroke:#181818;stroke-width:1;" x1="617.7902" x2="617.7902" y1="408.5912" y2="428.5912"/><polygon fill="#181818" points="613.7902,418.5912,617.7902,428.5912,621.7902,418.5912,617.7902,422.5912" style="stroke:#181818;stroke-width:1;"/><line style="stroke:#181818;stroke-width:1;" x1="617.7902" x2="617.7902" y1="464.9353" y2="484.9353"/><polygon fill="#181818" points="613.7902,474.9353,617.7902,484.9353,621.7902,474.9353,617.7902,478.9353" style="stroke:#181818;stroke-width:1;"/><line style="stroke:#181818;stroke-width:1;" x1="100.1795" x2="77.8084" y1="820.6054" y2="820.6054"/><line style="stroke:#181818;stroke-width:1;" x1="77.8084" x2="77.8084" y1="820.6054" y2="842.6054"/><polygon fill="#181818" points="73.8084,832.6054,77.8084,842.6054,81.8084,832.6054,77.8084,836.6054" style="stroke:#181818;stroke-width:1;"/><line style="stroke:#181818;stroke-width:1;" x1="267.8605" x2="290.2316" y1="820.6054" y2="820.6054"/><line style="stroke:#181818;stroke-width:1;" x1="290.2316" x2="290.2316" y1="820.6054" y2="842.6054"/><polygon fill="#181818" points="286.2316,832.6054,290.2316,842.6054,294.2316,832.6054,290.2316,836.6054" style="stroke:#181818;stroke-width:1;"/><line style="stroke:#181818;stroke-width:1;" x1="77.8084" x2="77.8084" y1="878.9495" y2="896.9495"/><line style="stroke:#181818;stroke-width:1;" x1="77.8084" x2="172.02" y1="896.9495" y2="896.9495"/><polygon fill="#181818" points="162.02,892.9495,172.02,896.9495,162.02,900.9495,166.02,896.9495" style="stroke:#181818;stroke-width:1;"/><line style="stroke:#181818;stroke-width:1;" x1="290.2316" x2="290.2316" y1="878.9495" y2="896.9495"/><line style="stroke:#181818;stroke-width:1;" x1="290.2316" x2="196.02" y1="896.9495" y2="896.9495"/><polygon fill="#181818" points="206.02,892.9495,196.02,896.9495,206.02,900.9495,202.02,896.9495" style="stroke:#181818;stroke-width:1;"/><line style="stroke:#181818;stroke-width:1;" x1="558.6551" x2="558.6551" y1="832.6054" y2="858.0964"/><polygon fill="#181818" points="554.6551,848.0964,558.6551,858.0964,562.6551,848.0964,558.6551,852.0964" style="stroke:#181818;stroke-width:1;"/><line style="stroke:#181818;stroke-width:1;" x1="626.3642" x2="671.4638" y1="820.6054" y2="820.6054"/><polygon fill="#181818" points="667.4638,866.2684,671.4638,876.2684,675.4638,866.2684,671.4638,870.2684" style="stroke:#181818;stroke-width:1;"/><line style="stroke:#181818;stroke-width:1;" x1="671.4638" x2="671.4638" y1="820.6054" y2="931.9314"/><line style="stroke:#181818;stroke-width:1;" x1="671.4638" x2="570.6551" y1="931.9314" y2="931.9314"/><polygon fill="#181818" points="580.6551,927.9314,570.6551,931.9314,580.6551,935.9314,576.6551,931.9314" style="stroke:#181818;stroke-width:1;"/><line style="stroke:#181818;stroke-width:1;" x1="558.6551" x2="558.6551" y1="894.4405" y2="919.9314"/><polygon fill="#181818" points="554.6551,909.9314,558.6551,919.9314,562.6551,909.9314,558.6551,913.9314" style="stroke:#181818;stroke-width:1;"/><line style="stroke:#181818;stroke-width:1;" x1="313.0444" x2="184.02" y1="786.6054" y2="786.6054"/><line style="stroke:#181818;stroke-width:1;" x1="184.02" x2="184.02" y1="786.6054" y2="808.6054"/><polygon fill="#181818" points="180.02,798.6054,184.02,808.6054,188.02,798.6054,184.02,802.6054" style="stroke:#181818;stroke-width:1;"/><line style="stroke:#181818;stroke-width:1;" x1="429.6307" x2="558.6551" y1="786.6054" y2="786.6054"/><line style="stroke:#181818;stroke-width:1;" x1="558.6551" x2="558.6551" y1="786.6054" y2="808.6054"/><polygon fill="#181818" points="554.6551,798.6054,558.6551,808.6054,562.6551,798.6054,558.6551,802.6054" style="stroke:#181818;stroke-width:1;"/><line style="stroke:#181818;stroke-width:1;" x1="184.02" x2="184.02" y1="908.9495" y2="961.9314"/><line style="stroke:#181818;stroke-width:1;" x1="184.02" x2="359.3376" y1="961.9314" y2="961.9314"/><polygon fill="#181818" points="349.3376,957.9314,359.3376,961.9314,349.3376,965.9314,353.3376,961.9314" style="stroke:#181818;stroke-width:1;"/><line style="stroke:#181818;stroke-width:1;" x1="558.6551" x2="558.6551" y1="943.9314" y2="961.9314"/><line style="stroke:#181818;stroke-width:1;" x1="558.6551" x2="383.3376" y1="961.9314" y2="961.9314"/><polygon fill="#181818" points="393.3376,957.9314,383.3376,961.9314,393.3376,965.9314,389.3376,961.9314" style="stroke:#181818;stroke-width:1;"/><line style="stroke:#181818;stroke-width:1;" x1="545.6206" x2="371.3376" y1="752.6054" y2="752.6054"/><line style="stroke:#181818;stroke-width:1;" x1="371.3376" x2="371.3376" y1="752.6054" y2="774.6054"/><polygon fill="#181818" points="367.3376,764.6054,371.3376,774.6054,375.3376,764.6054,371.3376,768.6054" style="stroke:#181818;stroke-width:1;"/><line style="stroke:#181818;stroke-width:1;" x1="689.9598" x2="864.2428" y1="752.6054" y2="752.6054"/><line style="stroke:#181818;stroke-width:1;" x1="864.2428" x2="864.2428" y1="752.6054" y2="774.6054"/><polygon fill="#181818" points="860.2428,764.6054,864.2428,774.6054,868.2428,764.6054,864.2428,768.6054" style="stroke:#181818;stroke-width:1;"/><line style="stroke:#181818;stroke-width:1;" x1="371.3376" x2="371.3376" y1="973.9314" y2="991.9314"/><line style="stroke:#181818;stroke-width:1;" x1="371.3376" x2="605.7902" y1="991.9314" y2="991.9314"/><polygon fill="#181818" points="595.7902,987.9314,605.7902,991.9314,595.7902,995.9314,599.7902,991.9314" style="stroke:#181818;stroke-width:1;"/><line style="stroke:#181818;stroke-width:1;" x1="864.2428" x2="864.2428" y1="810.9495" y2="991.9314"/><line style="stroke:#181818;stroke-width:1;" x1="864.2428" x2="629.7902" y1="991.9314" y2="991.9314"/><polygon fill="#181818" points="639.7902,987.9314,629.7902,991.9314,639.7902,995.9314,635.7902,991.9314" style="stroke:#181818;stroke-width:1;"/><line style="stroke:#181818;stroke-width:1;" x1="617.7902" x2="617.7902" y1="715.1145" y2="740.6054"/><polygon fill="#181818" points="613.7902,730.6054,617.7902,740.6054,621.7902,730.6054,617.7902,734.6054" style="stroke:#181818;stroke-width:1;"/><line style="stroke:#181818;stroke-width:1;" x1="727.948" x2="1029.0218" y1="703.1145" y2="703.1145"/><polygon fill="#181818" points="1025.0218,862.2684,1029.0218,872.2684,1033.0218,862.2684,1029.0218,866.2684" style="stroke:#181818;stroke-width:1;"/><line style="stroke:#181818;stroke-width:1;" x1="1029.0218" x2="1029.0218" y1="703.1145" y2="1035.9314"/><line style="stroke:#181818;stroke-width:1;" x1="1029.0218" x2="629.7902" y1="1035.9314" y2="1035.9314"/><polygon fill="#181818" points="639.7902,1031.9314,629.7902,1035.9314,639.7902,1039.9314,635.7902,1035.9314" style="stroke:#181818;stroke-width:1;"/><line style="stroke:#181818;stroke-width:1;" x1="617.7902" x2="617.7902" y1="1003.9314" y2="1023.9314"/><polygon fill="#181818" points="613.7902,1013.9314,617.7902,1023.9314,621.7902,1013.9314,617.7902,1017.9314" style="stroke:#181818;stroke-width:1;"/><line style="stroke:#181818;stroke-width:1;" x1="545.6206" x2="506.6435" y1="1136.9224" y2="1136.9224"/><line style="stroke:#181818;stroke-width:1;" x1="506.6435" x2="506.6435" y1="1136.9224" y2="1158.9224"/><polygon fill="#181818" points="502.6435,1148.9224,506.6435,1158.9224,510.6435,1148.9224,506.6435,1152.9224" style="stroke:#181818;stroke-width:1;"/><line style="stroke:#181818;stroke-width:1;" x1="689.9598" x2="728.9368" y1="1136.9224" y2="1136.9224"/><line style="stroke:#181818;stroke-width:1;" x1="728.9368" x2="728.9368" y1="1136.9224" y2="1158.9224"/><polygon fill="#181818" points="724.9368,1148.9224,728.9368,1158.9224,732.9368,1148.9224,728.9368,1152.9224" style="stroke:#181818;stroke-width:1;"/><line style="stroke:#181818;stroke-width:1;" x1="506.6435" x2="506.6435" y1="1195.2665" y2="1213.2665"/><line style="stroke:#181818;stroke-width:1;" x1="506.6435" x2="605.7902" y1="1213.2665" y2="1213.2665"/><polygon fill="#181818" points="595.7902,1209.2665,605.7902,1213.2665,595.7902,1217.2665,599.7902,1213.2665" style="stroke:#181818;stroke-width:1;"/><line style="stroke:#181818;stroke-width:1;" x1="728.9368" x2="728.9368" y1="1195.2665" y2="1213.2665"/><line style="stroke:#181818;stroke-width:1;" x1="728.9368" x2="629.7902" y1="1213.2665" y2="1213.2665"/><polygon fill="#181818" points="639.7902,1209.2665,629.7902,1213.2665,639.7902,1217.2665,635.7902,1213.2665" style="stroke:#181818;stroke-width:1;"/><line style="stroke:#181818;stroke-width:1;" x1="617.7902" x2="617.7902" y1="1099.4314" y2="1124.9224"/><polygon fill="#181818" points="613.7902,1114.9224,617.7902,1124.9224,621.7902,1114.9224,617.7902,1118.9224" style="stroke:#181818;stroke-width:1;"/><line style="stroke:#181818;stroke-width:1;" x1="691.7307" x2="841.6654" y1="1087.4314" y2="1087.4314"/><polygon fill="#181818" points="837.6654,1165.0944,841.6654,1175.0944,845.6654,1165.0944,841.6654,1169.0944" style="stroke:#181818;stroke-width:1;"/><line style="stroke:#181818;stroke-width:1;" x1="841.6654" x2="841.6654" y1="1087.4314" y2="1257.2665"/><line style="stroke:#181818;stroke-width:1;" x1="841.6654" x2="629.7902" y1="1257.2665" y2="1257.2665"/><polygon fill="#181818" points="639.7902,1253.2665,629.7902,1257.2665,639.7902,1261.2665,635.7902,1257.2665" style="stroke:#181818;stroke-width:1;"/><line style="stroke:#181818;stroke-width:1;" x1="617.7902" x2="617.7902" y1="1225.2665" y2="1245.2665"/><polygon fill="#181818" points="613.7902,1235.2665,617.7902,1245.2665,621.7902,1235.2665,617.7902,1239.2665" style="stroke:#181818;stroke-width:1;"/><line style="stroke:#181818;stroke-width:1;" x1="617.7902" x2="617.7902" y1="1047.9314" y2="1075.4314"/><polygon fill="#181818" points="613.7902,1065.4314,617.7902,1075.4314,621.7902,1065.4314,617.7902,1069.4314" style="stroke:#181818;stroke-width:1;"/><line style="stroke:#181818;stroke-width:1;" x1="545.6206" x2="518.9766" y1="1350.7574" y2="1350.7574"/><line style="stroke:#181818;stroke-width:1;" x1="518.9766" x2="518.9766" y1="1350.7574" y2="1372.7574"/><polygon fill="#181818" points="514.9766,1362.7574,518.9766,1372.7574,522.9766,1362.7574,518.9766,1366.7574" style="stroke:#181818;stroke-width:1;"/><line style="stroke:#181818;stroke-width:1;" x1="689.9598" x2="716.6037" y1="1350.7574" y2="1350.7574"/><line style="stroke:#181818;stroke-width:1;" x1="716.6037" x2="716.6037" y1="1350.7574" y2="1372.7574"/><polygon fill="#181818" points="712.6037,1362.7574,716.6037,1372.7574,720.6037,1362.7574,716.6037,1366.7574" style="stroke:#181818;stroke-width:1;"/><line style="stroke:#181818;stroke-width:1;" x1="518.9766" x2="518.9766" y1="1409.1016" y2="1427.1016"/><line style="stroke:#181818;stroke-width:1;" x1="518.9766" x2="605.7902" y1="1427.1016" y2="1427.1016"/><polygon fill="#181818" points="595.7902,1423.1016,605.7902,1427.1016,595.7902,1431.1016,599.7902,1427.1016" style="stroke:#181818;stroke-width:1;"/><line style="stroke:#181818;stroke-width:1;" x1="716.6037" x2="716.6037" y1="1409.1016" y2="1427.1016"/><line style="stroke:#181818;stroke-width:1;" x1="716.6037" x2="629.7902" y1="1427.1016" y2="1427.1016"/><polygon fill="#181818" points="639.7902,1423.1016,629.7902,1427.1016,639.7902,1431.1016,635.7902,1427.1016" style="stroke:#181818;stroke-width:1;"/><line style="stroke:#181818;stroke-width:1;" x1="617.7902" x2="617.7902" y1="1313.2665" y2="1338.7574"/><polygon fill="#181818" points="613.7902,1328.7574,617.7902,1338.7574,621.7902,1328.7574,617.7902,1332.7574" style="stroke:#181818;stroke-width:1;"/><line style="stroke:#181818;stroke-width:1;" x1="729.8069" x2="815.9102" y1="1301.2665" y2="1301.2665"/><polygon fill="#181818" points="811.9102,1378.9295,815.9102,1388.9295,819.9102,1378.9295,815.9102,1382.9295" style="stroke:#181818;stroke-width:1;"/><line style="stroke:#181818;stroke-width:1;" x1="815.9102" x2="815.9102" y1="1301.2665" y2="1471.1016"/><line style="stroke:#181818;stroke-width:1;" x1="815.9102" x2="629.7902" y1="1471.1016" y2="1471.1016"/><polygon fill="#181818" points="639.7902,1467.1016,629.7902,1471.1016,639.7902,1475.1016,635.7902,1471.1016" style="stroke:#181818;stroke-width:1;"/><line style="stroke:#181818;stroke-width:1;" x1="617.7902" x2="617.7902" y1="1439.1016" y2="1459.1016"/><polygon fill="#181818" points="613.7902,1449.1016,617.7902,1459.1016,621.7902,1449.1016,617.7902,1453.1016" style="stroke:#181818;stroke-width:1;"/><line style="stroke:#181818;stroke-width:1;" x1="617.7902" x2="617.7902" y1="1269.2665" y2="1289.2665"/><polygon fill="#181818" points="613.7902,1279.2665,617.7902,1289.2665,621.7902,1279.2665,617.7902,1283.2665" style="stroke:#181818;stroke-width:1;"/><line style="stroke:#181818;stroke-width:1;" x1="617.7902" x2="617.7902" y1="665.6235" y2="691.1145"/><polygon fill="#181818" points="613.7902,681.1145,617.7902,691.1145,621.7902,681.1145,617.7902,685.1145" style="stroke:#181818;stroke-width:1;"/><line style="stroke:#181818;stroke-width:1;" x1="658.214" x2="1047.0218" y1="653.6235" y2="653.6235"/><polygon fill="#181818" points="1043.0218,1083.6035,1047.0218,1093.6035,1051.0218,1083.6035,1047.0218,1087.6035" style="stroke:#181818;stroke-width:1;"/><line style="stroke:#181818;stroke-width:1;" x1="1047.0218" x2="1047.0218" y1="653.6235" y2="1515.1016"/><line style="stroke:#181818;stroke-width:1;" x1="1047.0218" x2="629.7902" y1="1515.1016" y2="1515.1016"/><polygon fill="#181818" points="639.7902,1511.1016,629.7902,1515.1016,639.7902,1519.1016,635.7902,1515.1016" style="stroke:#181818;stroke-width:1;"/><line style="stroke:#181818;stroke-width:1;" x1="617.7902" x2="617.7902" y1="1483.1016" y2="1503.1016"/><polygon fill="#181818" points="613.7902,1493.1016,617.7902,1503.1016,621.7902,1493.1016,617.7902,1497.1016" style="stroke:#181818;stroke-width:1;"/><line style="stroke:#181818;stroke-width:1;" x1="617.7902" x2="617.7902" y1="621.6235" y2="641.6235"/><polygon fill="#181818" points="613.7902,631.6235,617.7902,641.6235,621.7902,631.6235,617.7902,635.6235" style="stroke:#181818;stroke-width:1;"/><line style="stroke:#181818;stroke-width:1;" x1="617.7902" x2="617.7902" y1="565.2794" y2="585.2794"/><polygon fill="#181818" points="613.7902,575.2794,617.7902,585.2794,621.7902,575.2794,617.7902,579.2794" style="stroke:#181818;stroke-width:1;"/><line style="stroke:#181818;stroke-width:1;" x1="660.007" x2="1065.0218" y1="1559.1016" y2="1559.1016"/><polygon fill="#181818" points="1061.0218,1067.9314,1065.0218,1057.9314,1069.0218,1067.9314,1065.0218,1063.9314" style="stroke:#181818;stroke-width:1;"/><line style="stroke:#181818;stroke-width:1;" x1="1065.0218" x2="1065.0218" y1="553.2794" y2="1559.1016"/><line style="stroke:#181818;stroke-width:1;" x1="1065.0218" x2="629.7902" y1="553.2794" y2="553.2794"/><polygon fill="#181818" points="639.7902,549.2794,629.7902,553.2794,639.7902,557.2794,635.7902,553.2794" style="stroke:#181818;stroke-width:1;"/><line style="stroke:#181818;stroke-width:1;" x1="617.7902" x2="617.7902" y1="1527.1016" y2="1547.1016"/><polygon fill="#181818" points="613.7902,1537.1016,617.7902,1547.1016,621.7902,1537.1016,617.7902,1541.1016" style="stroke:#181818;stroke-width:1;"/><line style="stroke:#181818;stroke-width:1;" x1="617.7902" x2="617.7902" y1="521.2794" y2="541.2794"/><polygon fill="#181818" points="613.7902,531.2794,617.7902,541.2794,621.7902,531.2794,617.7902,535.2794" style="stroke:#181818;stroke-width:1;"/><line style="stroke:#181818;stroke-width:1;" x1="617.7902" x2="617.7902" y1="1571.1016" y2="1591.1016"/><polygon fill="#181818" points="613.7902,1581.1016,617.7902,1591.1016,621.7902,1581.1016,617.7902,1585.1016" style="stroke:#181818;stroke-width:1;"/><line style="stroke:#181818;stroke-width:1;" x1="617.7902" x2="617.7902" y1="1627.4457" y2="1647.4457"/><polygon fill="#181818" points="613.7902,1637.4457,617.7902,1647.4457,621.7902,1637.4457,617.7902,1641.4457" style="stroke:#181818;stroke-width:1;"/><line style="stroke:#181818;stroke-width:1;" x1="617.7902" x2="617.7902" y1="1805.969" y2="1825.969"/><polygon fill="#181818" points="613.7902,1815.969,617.7902,1825.969,621.7902,1815.969,617.7902,1819.969" style="stroke:#181818;stroke-width:1;"/><line style="stroke:#181818;stroke-width:1;" x1="617.7902" x2="617.7902" y1="1727.7898" y2="1753.2807"/><polygon fill="#181818" points="613.7902,1743.2807,617.7902,1753.2807,621.7902,1743.2807,617.7902,1747.2807" style="stroke:#181818;stroke-width:1;"/><line style="stroke:#181818;stroke-width:1;" x1="655.0185" x2="698.4686" y1="1715.7898" y2="1715.7898"/><polygon fill="#181818" points="694.4686,1795.1248,698.4686,1805.1248,702.4686,1795.1248,698.4686,1799.1248" style="stroke:#181818;stroke-width:1;"/><line style="stroke:#181818;stroke-width:1;" x1="698.4686" x2="698.4686" y1="1715.7898" y2="1869.969"/><line style="stroke:#181818;stroke-width:1;" x1="698.4686" x2="617.7902" y1="1869.969" y2="1869.969"/><line style="stroke:#181818;stroke-width:1;" x1="617.7902" x2="617.7902" y1="1869.969" y2="1889.969"/><polygon fill="#181818" points="613.7902,1879.969,617.7902,1889.969,621.7902,1879.969,617.7902,1883.969" style="stroke:#181818;stroke-width:1;"/><line style="stroke:#181818;stroke-width:1;" x1="617.7902" x2="617.7902" y1="1683.7898" y2="1703.7898"/><polygon fill="#181818" points="613.7902,1693.7898,617.7902,1703.7898,621.7902,1693.7898,617.7902,1697.7898" style="stroke:#181818;stroke-width:1;"/><line style="stroke:#181818;stroke-width:1;" x1="617.7902" x2="617.7902" y1="1913.969" y2="1939.4599"/><polygon fill="#181818" points="613.7902,1929.4599,617.7902,1939.4599,621.7902,1929.4599,617.7902,1933.4599" style="stroke:#181818;stroke-width:1;"/><line style="stroke:#181818;stroke-width:1;" x1="654.5455" x2="782.9312" y1="1901.969" y2="1901.969"/><polygon fill="#181818" points="778.9312,1955.804,782.9312,1965.804,786.9312,1955.804,782.9312,1959.804" style="stroke:#181818;stroke-width:1;"/><line style="stroke:#181818;stroke-width:1;" x1="782.9312" x2="782.9312" y1="1901.969" y2="2024.1481"/><line style="stroke:#181818;stroke-width:1;" x1="782.9312" x2="629.7902" y1="2024.1481" y2="2024.1481"/><polygon fill="#181818" points="639.7902,2020.1481,629.7902,2024.1481,639.7902,2028.1481,635.7902,2024.1481" style="stroke:#181818;stroke-width:1;"/><line style="stroke:#181818;stroke-width:1;" x1="617.7902" x2="617.7902" y1="1992.1481" y2="2012.1481"/><polygon fill="#181818" points="613.7902,2002.1481,617.7902,2012.1481,621.7902,2002.1481,617.7902,2006.1481" style="stroke:#181818;stroke-width:1;"/><line style="stroke:#181818;stroke-width:1;" x1="617.7902" x2="617.7902" y1="2036.1481" y2="2056.1481"/><polygon fill="#181818" points="613.7902,2046.1481,617.7902,2056.1481,621.7902,2046.1481,617.7902,2050.1481" style="stroke:#181818;stroke-width:1;"/><line style="stroke:#181818;stroke-width:1;" x1="617.7902" x2="617.7902" y1="2092.4922" y2="2112.4922"/><polygon fill="#181818" points="613.7902,2102.4922,617.7902,2112.4922,621.7902,2102.4922,617.7902,2106.4922" style="stroke:#181818;stroke-width:1;"/><line style="stroke:#181818;stroke-width:1;" x1="617.7902" x2="617.7902" y1="2148.8364" y2="2168.8364"/><polygon fill="#181818" points="613.7902,2158.8364,617.7902,2168.8364,621.7902,2158.8364,617.7902,2162.8364" style="stroke:#181818;stroke-width:1;"/><line style="stroke:#181818;stroke-width:1;" x1="617.7902" x2="617.7902" y1="2205.1805" y2="2225.1805"/><polygon fill="#181818" points="613.7902,2215.1805,617.7902,2225.1805,621.7902,2215.1805,617.7902,2219.1805" style="stroke:#181818;stroke-width:1;"/><?plantuml-src jLLDZzCm4BtdLymn5OfMN1jL21R11I44Md5PQUKcqtQeOnj_j5j-FUFO2Ks_bWFqq3Znl9dtPiPZJruYMDmHxYlgZBOUFWPXMoj8EX2gXVVOa2Eju8FK-w9mNbXVpB-Yqt8tGE4LU2kK4usFbdg7rbAB_3dlCyeZ6E4thYxcdxHeBmESrnRheg0LbED76SttmYfIQ_Tc1dw32ie3kba142shIaWcLqN3wfeXmFoB9UL7JxswHYjFAd1C09GEeLGwMxzTncpaf9JuJ7xnUbRtUqpJH81gQLMa_vWIffdrUh6Kx7D-ly5conz_1h8OeydGAKv1OT6WyEmZmHG--m5hzRxEmdW97DZv2shYViDPNMjxk7DXEQm1M_9zI7GUstDWWXwb_ubQC1OTAd_9UXhgjkM9xM813og_qQ_BPD9l_crB1aPW8bOVcKoBCyBU1PBJNXfzZFt3RErXugkls2tFKSLnJbyGFV2FzIf9xOJab9w8cTrWSFHspkR8TKVESUl2IV5MsiAa_6EiFvvpbmxYZDK_iF5FNl11CDe4AVvHirmeIGvMzS4crRYfTaXaXaE4lwmidI9ixzBYgT5Tnp7_YyWyEDDq2wQDZx_JTmwy9cnufea1-mtnn2uxdfCnIt4maCliYlc3SSZJwZZvaG-X0r9LXmnZReFPXCK5kpHRMtkeR52dYU31vOFbywQ3ycWTQ2KFzQFwh65lAUdfvsIkJtAs5Cqsc3DVznOZXxIR-daZr1glN1Chpi6ZAbjSYI1PBdKywqHdW853Z2hUDjmkmtZ-7ab1X_QQLzUxhGVBoSsLTqubnniaSuxHwg8N_1i0?></g></svg>