<?plantuml 1.2026.1?><svg xmlns="http://www.w3.org/2000/svg" xmlns:xlink="http://www.w3.org/1999/xlink" contentStyleType="text/css" data-diagram-type="SEQUENCE" height="1201px" preserveAspectRatio="none" style="width:1159px;height:1201px;background:#FFFFFF;" version="1.1" viewBox="0 0 1159 1201" width="1159px" zoomAndPan="magnify"><title>Categorization Review Human-in-the-Loop Flow</title><defs/><g><text fill="#000000" font-family="sans-serif" font-size="14" font-weight="bold" lengthAdjust="spacing" textLength="376.3047" x="393.3374" y="27.9951">Categorization Review Human-in-the-Loop Flow</text><rect fill="none" height="252.3281" style="stroke:#000000;stroke-width:1.5;" width="792.4922" x="20" y="135.5938"/><rect fill="none" height="74.3984" style="stroke:#000000;stroke-width:1.5;" width="285.9009" x="176.5508" y="203.9922"/><rect fill="none" height="126.7969" style="stroke:#000000;stroke-width:1.5;" width="792.4922" x="20" y="401.9219"/><rect fill="none" height="442.9297" style="stroke:#000000;stroke-width:1.5;" width="1001.8652" x="10" y="542.7188"/><rect fill="none" height="74.3984" style="stroke:#000000;stroke-width:1.5;" width="299.6055" x="176.5508" y="611.1172"/><rect fill="none" height="178.7344" style="stroke:#000000;stroke-width:1.5;" width="981.8652" x="20" y="799.9141"/><rect fill="none" height="104.5313" style="stroke:#000000;stroke-width:1.5;" width="1133.9795" x="20" y="999.6484"/><g class="participant-lifeline" data-entity-uid="part1" data-qualified-name="Analyst" id="part1-lifeline"><g><title>Analyst</title><rect fill="#000000" fill-opacity="0.00000" height="1002.5859" width="8" x="54.9937" y="118.5938"/><line style="stroke:#181818;stroke-width:0.5;stroke-dasharray:5,5;" x1="58" x2="58" y1="118.5938" y2="1121.1797"/></g></g><g class="participant-lifeline" data-entity-uid="part2" data-qualified-name="CLI" id="part2-lifeline"><g><title>finance_tooling CLI</title><rect fill="#000000" fill-opacity="0.00000" height="1002.5859" width="8" x="255.9346" y="118.5938"/><line style="stroke:#181818;stroke-width:0.5;stroke-dasharray:5,5;" x1="259.5508" x2="259.5508" y1="118.5938" y2="1121.1797"/></g></g><g class="participant-lifeline" data-entity-uid="part3" data-qualified-name="NORMALIZED" id="part3-lifeline"><g><title>transactions_normalized.csv</title><rect fill="#000000" fill-opacity="0.00000" height="1002.5859" width="8" x="467.1563" y="118.5938"/><line style="stroke:#181818;stroke-width:0.5;stroke-dasharray:5,5;" x1="470.584" x2="470.584" y1="118.5938" y2="1121.1797"/></g></g><g class="participant-lifeline" data-entity-uid="part4" data-qualified-name="REVIEW" id="part4-lifeline"><g><title>..file..</title><rect fill="#000000" fill-opacity="0.00000" height="1002.5859" width="8" x="689.1104" y="118.5938"/><line style="stroke:#181818;stroke-width:0.5;stroke-dasharray:5,5;" x1="692.7285" x2="692.7285" y1="118.5938" y2="1121.1797"/></g></g><g class="participant-lifeline" data-entity-uid="part5" data-qualified-name="OVERRIDES" id="part5-lifeline"><g><title>category_overrides.yaml</title><rect fill="#000000" fill-opacity="0.00000" height="1002.5859" width="8" x="898.1787" y="118.5938"/><line style="stroke:#181818;stroke-width:0.5;stroke-dasharray:5,5;" x1="901.4922" x2="901.4922" y1="118.5938" y2="1121.1797"/></g></g><g class="participant-lifeline" data-entity-uid="part6" data-qualified-name="TRANSFORM" id="part6-lifeline"><g><title>transform stage</title><rect fill="#000000" fill-opacity="0.00000" height="1002.5859" width="8" x="1076.8838" y="118.5938"/><line style="stroke:#181818;stroke-width:0.5;stroke-dasharray:5,5;" x1="1080.7881" x2="1080.7881" y1="118.5938" y2="1121.1797"/></g></g><g class="participant participant-head" data-entity-uid="part1" data-qualified-name="Analyst" id="part1-head"><text fill="#000000" font-family="sans-serif" font-size="14" lengthAdjust="spacing" textLength="51.9873" x="30" y="115.292">Analyst</text><ellipse cx="58.9937" cy="50.7969" fill="#E2E2F0" rx="8" ry="8" style="stroke:#181818;stroke-width:0.5;"/><path d="M58.9937,58.7969 L58.9937,85.7969 M45.9937,66.7969 L71.9937,66.7969 M58.9937,85.7969 L45.9937,100.7969 M58.9937,85.7969 L71.9937,100.7969" fill="none" style="stroke:#181818;stroke-width:0.5;"/></g><g class="participant participant-tail" data-entity-uid="part1" data-qualified-name="Analyst" id="part1-tail"><text fill="#000000" font-family="sans-serif" font-size="14" lengthAdjust="spacing" textLength="51.9873" x="30" y="1133.1748">Analyst</text><ellipse cx="58.9937" cy="1144.9766" fill="#E2E2F0" rx="8" ry="8" style="stroke:#181818;stroke-width:0.5;"/><path d="M58.9937,1152.9766 L58.9937,1179.9766 M45.9937,1160.9766 L71.9937,1160.9766 M58.9937,1179.9766 L45.9937,1194.9766 M58.9937,1179.9766 L71.9937,1194.9766" fill="none" style="stroke:#181818;stroke-width:0.5;"/></g><g class="participant participant-head" data-entity-uid="part2" data-qualified-name="CLI" id="part2-head"><rect fill="#E2E2F0" height="30.2969" rx="2.5" ry="2.5" style="stroke:#181818;stroke-width:0.5;" width="146.7676" x="186.5508" y="87.2969"/><text fill="#000000" font-family="sans-serif" font-size="14" lengthAdjust="spacing" textLength="132.7676" x="193.5508" y="107.292">finance_tooling CLI</text></g><g class="participant participant-tail" data-entity-uid="part2" data-qualified-name="CLI" id="part2-tail"><rect fill="#E2E2F0" height="30.2969" rx="2.5" ry="2.5" style="stroke:#181818;stroke-width:0.5;" width="146.7676" x="186.5508" y="1120.1797"/><text fill="#000000" font-family="sans-serif" font-size="14" lengthAdjust="spacing" textLength="132.7676" x="193.5508" y="1140.1748">finance_tooling CLI</text></g><g class="participant participant-head" data-entity-uid="part3" data-qualified-name="NORMALIZED" id="part3-head"><text fill="#000000" font-family="sans-serif" font-size="14" lengthAdjust="spacing" textLength="199.1445" x="368.584" y="115.292">transactions_normalized.csv</text><path d="M453.1563,66.2969 C453.1563,56.2969 471.1563,56.2969 471.1563,56.2969 C471.1563,56.2969 489.1563,56.2969 489.1563,66.2969 L489.1563,92.2969 C489.1563,102.2969 471.1563,102.2969 471.1563,102.2969 C471.1563,102.2969 453.1563,102.2969 453.1563,92.2969 L453.1563,66.2969" fill="#E2E2F0" style="stroke:#181818;stroke-width:0.5;"/><path d="M453.1563,66.2969 C453.1563,76.2969 471.1563,76.2969 471.1563,76.2969 C471.1563,76.2969 489.1563,76.2969 489.1563,66.2969" fill="none" style="stroke:#181818;stroke-width:0.5;"/></g><g class="participant participant-tail" data-entity-uid="part3" data-qualified-name="NORMALIZED" id="part3-tail"><text fill="#000000" font-family="sans-serif" font-size="14" lengthAdjust="spacing" textLength="199.1445" x="368.584" y="1133.1748">transactions_normalized.csv</text><path d="M453.1563,1146.4766 C453.1563,1136.4766 471.1563,1136.4766 471.1563,1136.4766 C471.1563,1136.4766 489.1563,1136.4766 489.1563,1146.4766 L489.1563,1172.4766 C489.1563,1182.4766 471.1563,1182.4766 471.1563,1182.4766 C471.1563,1182.4766 453.1563,1182.4766 453.1563,1172.4766 L453.1563,1146.4766" fill="#E2E2F0" style="stroke:#181818;stroke-width:0.5;"/><path d="M453.1563,1146.4766 C453.1563,1156.4766 471.1563,1156.4766 471.1563,1156.4766 C471.1563,1156.4766 489.1563,1156.4766 489.1563,1146.4766" fill="none" style="stroke:#181818;stroke-width:0.5;"/></g><g class="participant participant-head" data-entity-uid="part4" data-qualified-name="REVIEW" id="part4-head"><rect fill="#E2E2F0" height="46.5938" rx="2.5" ry="2.5" style="stroke:#181818;stroke-width:0.5;" width="218.7637" x="583.7285" y="71"/><text fill="#000000" font-family="sans-serif" font-size="14" font-style="italic" lengthAdjust="spacing" textLength="38.6025" x="673.8091" y="90.9951">&#171;file&#187;</text><text fill="#000000" font-family="sans-serif" font-size="14" lengthAdjust="spacing" textLength="204.7637" x="590.7285" y="107.292">fallback_category_review.csv</text></g><g class="participant participant-tail" data-entity-uid="part4" data-qualified-name="REVIEW" id="part4-tail"><rect fill="#E2E2F0" height="46.5938" rx="2.5" ry="2.5" style="stroke:#181818;stroke-width:0.5;" width="218.7637" x="583.7285" y="1120.1797"/><text fill="#000000" font-family="sans-serif" font-size="14" font-style="italic" lengthAdjust="spacing" textLength="38.6025" x="673.8091" y="1140.1748">&#171;file&#187;</text><text fill="#000000" font-family="sans-serif" font-size="14" lengthAdjust="spacing" textLength="204.7637" x="590.7285" y="1156.4717">fallback_category_review.csv</text></g><g class="participant participant-head" data-entity-uid="part5" data-qualified-name="OVERRIDES" id="part5-head"><text fill="#000000" font-family="sans-serif" font-size="14" lengthAdjust="spacing" textLength="173.373" x="812.4922" y="115.292">category_overrides.yaml</text><path d="M884.1787,66.2969 C884.1787,56.2969 902.1787,56.2969 902.1787,56.2969 C902.1787,56.2969 920.1787,56.2969 920.1787,66.2969 L920.1787,92.2969 C920.1787,102.2969 902.1787,102.2969 902.1787,102.2969 C902.1787,102.2969 884.1787,102.2969 884.1787,92.2969 L884.1787,66.2969" fill="#E2E2F0" style="stroke:#181818;stroke-width:0.5;"/><path d="M884.1787,66.2969 C884.1787,76.2969 902.1787,76.2969 902.1787,76.2969 C902.1787,76.2969 920.1787,76.2969 920.1787,66.2969" fill="none" style="stroke:#181818;stroke-width:0.5;"/></g><g class="participant participant-tail" data-entity-uid="part5" data-qualified-name="OVERRIDES" id="part5-tail"><text fill="#000000" font-family="sans-serif" font-size="14" lengthAdjust="spacing" textLength="173.373" x="812.4922" y="1133.1748">category_overrides.yaml</text><path d="M884.1787,1146.4766 C884.1787,1136.4766 902.1787,1136.4766 902.1787,1136.4766 C902.1787,1136.4766 920.1787,1136.4766 920.1787,1146.4766 L920.1787,1172.4766 C920.1787,1182.4766 902.1787,1182.4766 902.1787,1182.4766 C902.1787,1182.4766 884.1787,1182.4766 884.1787,1172.4766 L884.1787,1146.4766" fill="#E2E2F0" style="stroke:#181818;stroke-width:0.5;"/><path d="M884.1787,1146.4766 C884.1787,1156.4766 902.1787,1156.4766 902.1787,1156.4766 C902.1787,1156.4766 920.1787,1156.4766 920.1787,1146.4766" fill="none" style="stroke:#181818;stroke-width:0.5;"/></g><g class="participant participant-head" data-entity-uid="part6" data-qualified-name="TRANSFORM" id="part6-head"><rect fill="#E2E2F0" height="30.2969" rx="2.5" ry="2.5" style="stroke:#181818;stroke-width:0.5;" width="126.1914" x="1017.7881" y="87.2969"/><text fill="#000000" font-family="sans-serif" font-size="14" lengthAdjust="spacing" textLength="112.1914" x="1024.7881" y="107.292">transform stage</text></g><g class="participant participant-tail" data-entity-uid="part6" data-qualified-name="TRANSFORM" id="part6-tail"><rect fill="#E2E2F0" height="30.2969" rx="2.5" ry="2.5" style="stroke:#181818;stroke-width:0.5;" width="126.1914" x="1017.7881" y="1120.1797"/><text fill="#000000" font-family="sans-serif" font-size="14" lengthAdjust="spacing" textLength="112.1914" x="1024.7881" y="1140.1748">transform stage</text></g><path d="M20,135.5938 L170.2378,135.5938 L170.2378,142.7266 L160.2378,152.7266 L20,152.7266 L20,135.5938" fill="#EEEEEE" style="stroke:#000000;stroke-width:1.5;"/><rect fill="none" height="252.3281" style="stroke:#000000;stroke-width:1.5;" width="792.4922" x="20" y="135.5938"/><text fill="#000000" font-family="sans-serif" font-size="13" font-weight="bold" lengthAdjust="spacing" textLength="105.2378" x="35" y="148.6606">Review Export</text><g class="message" data-entity-1="part1" data-entity-2="part2" id="msg1"><polygon fill="#181818" points="247.9346,184.9922,257.9346,188.9922,247.9346,192.9922,251.9346,188.9922" style="stroke:#181818;stroke-width:1;"/><line style="stroke:#181818;stroke-width:1;" x1="58.9937" x2="253.9346" y1="188.9922" y2="188.9922"/><text fill="#000000" font-family="sans-serif" font-size="13" lengthAdjust="spacing" textLength="90.3081" x="65.9937" y="168.7935">review-export</text><text fill="#000000" font-family="sans-serif" font-size="13" lengthAdjust="spacing" textLength="153.0801" x="65.9937" y="183.9263">[with flags OR defaults]</text></g><path d="M176.5508,203.9922 L240.9937,203.9922 L240.9937,211.125 L230.9937,221.125 L176.5508,221.125 L176.5508,203.9922" fill="#EEEEEE" style="stroke:#000000;stroke-width:1.5;"/><rect fill="none" height="74.3984" style="stroke:#000000;stroke-width:1.5;" width="285.9009" x="176.5508" y="203.9922"/><text fill="#000000" font-family="sans-serif" font-size="13" font-weight="bold" lengthAdjust="spacing" textLength="19.4429" x="191.5508" y="217.0591">alt</text><text fill="#000000" font-family="sans-serif" font-size="11" font-weight="bold" lengthAdjust="spacing" textLength="92.9253" x="255.9937" y="216.2026">[flags omitted]</text><g class="message" data-entity-1="part2" data-entity-2="part2" id="msg2"><line style="stroke:#181818;stroke-width:1;" x1="259.9346" x2="301.9346" y1="257.3906" y2="257.3906"/><line style="stroke:#181818;stroke-width:1;" x1="301.9346" x2="301.9346" y1="257.3906" y2="270.3906"/><line style="stroke:#181818;stroke-width:1;" x1="260.9346" x2="301.9346" y1="270.3906" y2="270.3906"/><polygon fill="#181818" points="270.9346,266.3906,260.9346,270.3906,270.9346,274.3906,266.9346,270.3906" style="stroke:#181818;stroke-width:1;"/><text fill="#000000" font-family="sans-serif" font-size="13" lengthAdjust="spacing" textLength="174.5732" x="266.9346" y="237.1919">Resolve defaults from .env</text><text fill="#000000" font-family="sans-serif" font-size="13" lengthAdjust="spacing" textLength="183.5171" x="266.9346" y="252.3247">FINANCE_PROCESSED_PATH</text></g><g class="message" data-entity-1="part2" data-entity-2="part3" id="msg3"><polygon fill="#181818" points="459.1563,302.5234,469.1563,306.5234,459.1563,310.5234,463.1563,306.5234" style="stroke:#181818;stroke-width:1;"/><line style="stroke:#181818;stroke-width:1;" x1="259.9346" x2="465.1563" y1="306.5234" y2="306.5234"/><text fill="#000000" font-family="sans-serif" font-size="13" lengthAdjust="spacing" textLength="146.9038" x="266.9346" y="301.4575">Read normalized table</text></g><g class="message" data-entity-1="part2" data-entity-2="part4" id="msg4"><polygon fill="#181818" points="681.1104,331.6563,691.1104,335.6563,681.1104,339.6563,685.1104,335.6563" style="stroke:#181818;stroke-width:1;"/><line style="stroke:#181818;stroke-width:1;" x1="259.9346" x2="687.1104" y1="335.6563" y2="335.6563"/><text fill="#000000" font-family="sans-serif" font-size="13" lengthAdjust="spacing" textLength="204.1343" x="266.9346" y="330.5903">Write fallback-only review rows</text></g><g class="message" data-entity-1="part2" data-entity-2="part1" id="msg5"><polygon fill="#181818" points="69.9937,375.9219,59.9937,379.9219,69.9937,383.9219,65.9937,379.9219" style="stroke:#181818;stroke-width:1;"/><line style="stroke:#181818;stroke-width:1;stroke-dasharray:2,2;" x1="63.9937" x2="258.9346" y1="379.9219" y2="379.9219"/><text fill="#000000" font-family="sans-serif" font-size="13" lengthAdjust="spacing" textLength="108.0308" x="75.9937" y="359.7231">Export summary</text><text fill="#000000" font-family="sans-serif" font-size="13" lengthAdjust="spacing" textLength="170.606" x="75.9937" y="374.856">(row count + output path)</text></g><path d="M20,401.9219 L175.5571,401.9219 L175.5571,409.0547 L165.5571,419.0547 L20,419.0547 L20,401.9219" fill="#EEEEEE" style="stroke:#000000;stroke-width:1.5;"/><rect fill="none" height="126.7969" style="stroke:#000000;stroke-width:1.5;" width="792.4922" x="20" y="401.9219"/><text fill="#000000" font-family="sans-serif" font-size="13" font-weight="bold" lengthAdjust="spacing" textLength="110.5571" x="35" y="414.9888">Manual Review</text><g class="message" data-entity-1="part1" data-entity-2="part4" id="msg6"><polygon fill="#181818" points="681.1104,436.1875,691.1104,440.1875,681.1104,444.1875,685.1104,440.1875" style="stroke:#181818;stroke-width:1;"/><line style="stroke:#181818;stroke-width:1;" x1="58.9937" x2="687.1104" y1="440.1875" y2="440.1875"/><text fill="#000000" font-family="sans-serif" font-size="13" lengthAdjust="spacing" textLength="171.8564" x="65.9937" y="435.1216">Edit category/subcategory</text></g><path d="M63,453.1875 L63,523.1875 L231,523.1875 L231,463.1875 L221,453.1875 L63,453.1875" fill="#FEFFDD" style="stroke:#181818;stroke-width:0.5;"/><path d="M221,453.1875 L221,463.1875 L231,463.1875 L221,453.1875" fill="#FEFFDD" style="stroke:#181818;stroke-width:0.5;"/><text fill="#000000" font-family="sans-serif" font-size="13" lengthAdjust="spacing" textLength="147.291" x="69" y="470.2544">Keep key fields stable:</text><text fill="#000000" font-family="sans-serif" font-size="13" lengthAdjust="spacing" textLength="81.104" x="69" y="485.3872">- description</text><text fill="#000000" font-family="sans-serif" font-size="13" lengthAdjust="spacing" textLength="40.8091" x="69" y="500.52">- bank</text><text fill="#000000" font-family="sans-serif" font-size="13" lengthAdjust="spacing" textLength="98.5537" x="69" y="515.6528">- account_label</text><path d="M10,542.7188 L161.355,542.7188 L161.355,549.8516 L151.355,559.8516 L10,559.8516 L10,542.7188" fill="#EEEEEE" style="stroke:#000000;stroke-width:1.5;"/><rect fill="none" height="442.9297" style="stroke:#000000;stroke-width:1.5;" width="1001.8652" x="10" y="542.7188"/><text fill="#000000" font-family="sans-serif" font-size="13" font-weight="bold" lengthAdjust="spacing" textLength="106.355" x="25" y="555.7856">Review Import</text><g class="message" data-entity-1="part1" data-entity-2="part2" id="msg7"><polygon fill="#181818" points="247.9346,592.1172,257.9346,596.1172,247.9346,600.1172,251.9346,596.1172" style="stroke:#181818;stroke-width:1;"/><line style="stroke:#181818;stroke-width:1;" x1="58.9937" x2="253.9346" y1="596.1172" y2="596.1172"/><text fill="#000000" font-family="sans-serif" font-size="13" lengthAdjust="spacing" textLength="90.8921" x="65.9937" y="575.9185">review-import</text><text fill="#000000" font-family="sans-serif" font-size="13" lengthAdjust="spacing" textLength="153.0801" x="65.9937" y="591.0513">[with flags OR defaults]</text></g><path d="M176.5508,611.1172 L240.9937,611.1172 L240.9937,618.25 L230.9937,628.25 L176.5508,628.25 L176.5508,611.1172" fill="#EEEEEE" style="stroke:#000000;stroke-width:1.5;"/><rect fill="none" height="74.3984" style="stroke:#000000;stroke-width:1.5;" width="299.6055" x="176.5508" y="611.1172"/><text fill="#000000" font-family="sans-serif" font-size="13" font-weight="bold" lengthAdjust="spacing" textLength="19.4429" x="191.5508" y="624.1841">alt</text><text fill="#000000" font-family="sans-serif" font-size="11" font-weight="bold" lengthAdjust="spacing" textLength="92.9253" x="255.9937" y="623.3276">[flags omitted]</text><g class="message" data-entity-1="part2" data-entity-2="part2" id="msg8"><line style="stroke:#181818;stroke-width:1;" x1="259.9346" x2="301.9346" y1="664.5156" y2="664.5156"/><line style="stroke:#181818;stroke-width:1;" x1="301.9346" x2="301.9346" y1="664.5156" y2="677.5156"/><line style="stroke:#181818;stroke-width:1;" x1="260.9346" x2="301.9346" y1="677.5156" y2="677.5156"/><polygon fill="#181818" points="270.9346,673.5156,260.9346,677.5156,270.9346,681.5156,266.9346,677.5156" style="stroke:#181818;stroke-width:1;"/><text fill="#000000" font-family="sans-serif" font-size="13" lengthAdjust="spacing" textLength="174.5732" x="266.9346" y="644.3169">Resolve defaults from .env</text><text fill="#000000" font-family="sans-serif" font-size="13" lengthAdjust="spacing" textLength="197.2217" x="266.9346" y="659.4497">(processed + overrides paths)</text></g><g class="message" data-entity-1="part2" data-entity-2="part5" id="msg9"><polygon fill="#181818" points="890.1787,709.6484,900.1787,713.6484,890.1787,717.6484,894.1787,713.6484" style="stroke:#181818;stroke-width:1;"/><line style="stroke:#181818;stroke-width:1;" x1="259.9346" x2="896.1787" y1="713.6484" y2="713.6484"/><text fill="#000000" font-family="sans-serif" font-size="13" lengthAdjust="spacing" textLength="151.9248" x="266.9346" y="708.5825">Load existing overrides</text></g><g class="message" data-entity-1="part2" data-entity-2="part4" id="msg10"><polygon fill="#181818" points="681.1104,738.7813,691.1104,742.7813,681.1104,746.7813,685.1104,742.7813" style="stroke:#181818;stroke-width:1;"/><line style="stroke:#181818;stroke-width:1;" x1="259.9346" x2="687.1104" y1="742.7813" y2="742.7813"/><text fill="#000000" font-family="sans-serif" font-size="13" lengthAdjust="spacing" textLength="131.7456" x="266.9346" y="737.7153">Read reviewed rows</text></g><g class="message" data-entity-1="part2" data-entity-2="part2" id="msg11"><line style="stroke:#181818;stroke-width:1;" x1="259.9346" x2="301.9346" y1="771.9141" y2="771.9141"/><line style="stroke:#181818;stroke-width:1;" x1="301.9346" x2="301.9346" y1="771.9141" y2="784.9141"/><line style="stroke:#181818;stroke-width:1;" x1="260.9346" x2="301.9346" y1="784.9141" y2="784.9141"/><polygon fill="#181818" points="270.9346,780.9141,260.9346,784.9141,270.9346,788.9141,266.9346,784.9141" style="stroke:#181818;stroke-width:1;"/><text fill="#000000" font-family="sans-serif" font-size="13" lengthAdjust="spacing" textLength="151.1948" x="266.9346" y="766.8481">Validate and filter rows</text></g><path d="M20,799.9141 L84.4429,799.9141 L84.4429,807.0469 L74.4429,817.0469 L20,817.0469 L20,799.9141" fill="#EEEEEE" style="stroke:#000000;stroke-width:1.5;"/><rect fill="none" height="178.7344" style="stroke:#000000;stroke-width:1.5;" width="981.8652" x="20" y="799.9141"/><text fill="#000000" font-family="sans-serif" font-size="13" font-weight="bold" lengthAdjust="spacing" textLength="19.4429" x="35" y="812.981">alt</text><text fill="#000000" font-family="sans-serif" font-size="11" font-weight="bold" lengthAdjust="spacing" textLength="109.6992" x="99.4429" y="812.1245">[dry-run enabled]</text><g class="message" data-entity-1="part2" data-entity-2="part1" id="msg12"><polygon fill="#181818" points="69.9937,849.3125,59.9937,853.3125,69.9937,857.3125,65.9937,853.3125" style="stroke:#181818;stroke-width:1;"/><line style="stroke:#181818;stroke-width:1;stroke-dasharray:2,2;" x1="63.9937" x2="258.9346" y1="853.3125" y2="853.3125"/><text fill="#000000" font-family="sans-serif" font-size="13" lengthAdjust="spacing" textLength="157.8789" x="75.9937" y="833.1138">Preview upsert counters</text><text fill="#000000" font-family="sans-serif" font-size="13" lengthAdjust="spacing" textLength="87.0835" x="75.9937" y="848.2466">(no file write)</text></g><line style="stroke:#000000;stroke-width:1;stroke-dasharray:2,2;" x1="20" x2="1001.8652" y1="862.3125" y2="862.3125"/><text fill="#000000" font-family="sans-serif" font-size="11" font-weight="bold" lengthAdjust="spacing" textLength="89.3428" x="25" y="872.5229">[apply import]</text><g class="message" data-entity-1="part2" data-entity-2="part5" id="msg13"><polygon fill="#181818" points="890.1787,893.25,900.1787,897.25,890.1787,901.25,894.1787,897.25" style="stroke:#181818;stroke-width:1;"/><line style="stroke:#181818;stroke-width:1;" x1="259.9346" x2="896.1787" y1="897.25" y2="897.25"/><text fill="#000000" font-family="sans-serif" font-size="13" lengthAdjust="spacing" textLength="127.3911" x="266.9346" y="892.1841">Backup existing file</text></g><g class="message" data-entity-1="part2" data-entity-2="part5" id="msg14"><polygon fill="#181818" points="890.1787,922.3828,900.1787,926.3828,890.1787,930.3828,894.1787,926.3828" style="stroke:#181818;stroke-width:1;"/><line style="stroke:#181818;stroke-width:1;" x1="259.9346" x2="896.1787" y1="926.3828" y2="926.3828"/><text fill="#000000" font-family="sans-serif" font-size="13" lengthAdjust="spacing" textLength="197.4185" x="266.9346" y="921.3169">Upsert overrides and write file</text></g><g class="message" data-entity-1="part2" data-entity-2="part1" id="msg15"><polygon fill="#181818" points="69.9937,966.6484,59.9937,970.6484,69.9937,974.6484,65.9937,970.6484" style="stroke:#181818;stroke-width:1;"/><line style="stroke:#181818;stroke-width:1;stroke-dasharray:2,2;" x1="63.9937" x2="258.9346" y1="970.6484" y2="970.6484"/><text fill="#000000" font-family="sans-serif" font-size="13" lengthAdjust="spacing" textLength="108.6211" x="75.9937" y="950.4497">Import summary</text><text fill="#000000" font-family="sans-serif" font-size="13" lengthAdjust="spacing" textLength="176.9409" x="75.9937" y="965.5825">(updated/inserted/skipped)</text></g><path d="M20,999.6484 L218.8418,999.6484 L218.8418,1006.7813 L208.8418,1016.7813 L20,1016.7813 L20,999.6484" fill="#EEEEEE" style="stroke:#000000;stroke-width:1.5;"/><rect fill="none" height="104.5313" style="stroke:#000000;stroke-width:1.5;" width="1133.9795" x="20" y="999.6484"/><text fill="#000000" font-family="sans-serif" font-size="13" font-weight="bold" lengthAdjust="spacing" textLength="153.8418" x="35" y="1012.7153">Apply New Overrides</text><g class="message" data-entity-1="part1" data-entity-2="part6" id="msg16"><polygon fill="#181818" points="1068.8838,1033.9141,1078.8838,1037.9141,1068.8838,1041.9141,1072.8838,1037.9141" style="stroke:#181818;stroke-width:1;"/><line style="stroke:#181818;stroke-width:1;" x1="58.9937" x2="1074.8838" y1="1037.9141" y2="1037.9141"/><text fill="#000000" font-family="sans-serif" font-size="13" lengthAdjust="spacing" textLength="93.6025" x="65.9937" y="1032.8481">Run transform</text></g><g class="message" data-entity-1="part6" data-entity-2="part5" id="msg17"><polygon fill="#181818" points="913.1787,1063.0469,903.1787,1067.0469,913.1787,1071.0469,909.1787,1067.0469" style="stroke:#181818;stroke-width:1;"/><line style="stroke:#181818;stroke-width:1;" x1="907.1787" x2="1079.8838" y1="1067.0469" y2="1067.0469"/><text fill="#000000" font-family="sans-serif" font-size="13" lengthAdjust="spacing" textLength="154.7051" x="919.1787" y="1061.981">Load updated overrides</text></g><g class="message" data-entity-1="part6" data-entity-2="part1" id="msg18"><polygon fill="#181818" points="69.9937,1092.1797,59.9937,1096.1797,69.9937,1100.1797,65.9937,1096.1797" style="stroke:#181818;stroke-width:1;"/><line style="stroke:#181818;stroke-width:1;stroke-dasharray:2,2;" x1="63.9937" x2="1079.8838" y1="1096.1797" y2="1096.1797"/><text fill="#000000" font-family="sans-serif" font-size="13" lengthAdjust="spacing" textLength="162.7158" x="75.9937" y="1091.1138">New categorized outputs</text></g><?plantuml-src jLHRJzim57xFhpZY2JG5tYk4r9KWgfKMfGoaZQawJKvQguvjsKvB-VKxpgqPGtlRKzBcNBwRxOMN11FqjD5MlACNMa5AUq47kAzALB5GiTzIFDFQm9tKXoZ2p6iBOuNow7naq7gH2OFAmraX5AgCLbvhATG69hFf6Q0BpoX7Zsjq16VUed8yXNUvbTAsH2dUAR_CtBwkdY_IX_5i-YEv_J0TfLnZjbjb3TxZojP8-yOqUPucBt1zNGX9DpU3bNs7tfEr8YTtUSHIrbsBvoHDfxV9yizjDSg2qO7pkA6wz2aTpvTt32-ADbPNffCgUJFQ-gZL1EARm7W43RoOwg-lwkT1-2qK4ZUyD8MS2goaTxyYbBxzMvV2UyeZRk-dfEIqt5DV3uNL9LoIsh-gk-byF9yagyTqCKcMo-HszJX-kez8zIDEOeP9cCD9S61r97M5ZNWZUB724tHQnrh9Oqi4h3wuffphMxAZbZougYpH7b_LEPT1fYiMyGleoflAWq6_lQXXjS8zeAfGjleDXUjW9BdmqDbsvQfrznufpVYis6mzwABFuJSY0piwGY58vYwOnkH6KSowkSmA4-B6lzQeTlp0h4QuahWc6O1163j4s5exBVzbhIZ_cxNdnkgCd6EVMCOkjhMIxcBeS9_V4Smq6qnlmlbm-lgcZnRNEMWOyFIJgosgPuu77nq2P5duA7coJL4WazjZR2i5f8A--TznU6p3KXb778jQPhAE2IaTfX4SGiAOWkIJYSPmlXePFo7qbIF8NlIKGlydPT-RNIUL0l934-I-OmYoSNMGsSe4nlcLK64IlxYTC8RoHkb1BCOru3aJNFJo3iBHtn2iCglKNo9H_-4pozhj0yS6vKFSOM_MtTQXeJvUhWRu6m00?></g></svg>