<?plantuml 1.2026.1?><svg xmlns="http://www.w3.org/2000/svg" xmlns:xlink="http://www.w3.org/1999/xlink" contentStyleType="text/css" data-diagram-type="ACTIVITY" height="1596px" preserveAspectRatio="none" style="width:620px;height:1596px;background:#FFFFFF;" version="1.1" viewBox="0 0 620 1596" width="620px" zoomAndPan="magnify"><title>review-import Guardrails and Decision Flow</title><defs/><g><g class="title" data-source-line="1"><text fill="#000000" font-family="sans-serif" font-size="14" font-weight="bold" lengthAdjust="spacing" textLength="346.0762" x="135.6536" y="32.9951">review-import Guardrails and Decision Flow</text></g><ellipse cx="238.2887" cy="57.2969" fill="#222222" rx="10" ry="10" style="stroke:#222222;stroke-width:1;"/><rect fill="#F1F1F1" height="33.9688" rx="12.5" ry="12.5" style="stroke:#181818;stroke-width:0.5;" width="222.207" x="127.1852" y="87.2969"/><text fill="#000000" font-family="sans-serif" font-size="12" lengthAdjust="spacing" textLength="202.207" x="137.1852" y="108.4355">Resolve review + overrides paths</text><rect fill="#F1F1F1" height="33.9688" rx="12.5" ry="12.5" style="stroke:#181818;stroke-width:0.5;" width="137.2695" x="169.6539" y="141.2656"/><text fill="#000000" font-family="sans-serif" font-size="12" lengthAdjust="spacing" textLength="117.2695" x="179.6539" y="162.4043">Load override store</text><polygon fill="#F1F1F1" points="176.4003,243.6367,300.1771,243.6367,312.1771,255.6367,300.1771,267.6367,176.4003,267.6367,164.4003,255.6367,176.4003,243.6367" style="stroke:#181818;stroke-width:0.5;"/><text fill="#000000" font-family="sans-serif" font-size="11" lengthAdjust="spacing" textLength="123.7769" x="176.4003" y="259.4448">--allow-load-warnings?</text><text fill="#000000" font-family="sans-serif" font-size="11" lengthAdjust="spacing" textLength="19.0083" x="145.392" y="253.0425">yes</text><text fill="#000000" font-family="sans-serif" font-size="11" lengthAdjust="spacing" textLength="13.7017" x="312.1771" y="253.0425">no</text><rect fill="#F1F1F1" height="33.9688" rx="12.5" ry="12.5" style="stroke:#181818;stroke-width:0.5;" width="188.5273" x="49.485" y="277.6367"/><text fill="#000000" font-family="sans-serif" font-size="12" lengthAdjust="spacing" textLength="168.5273" x="59.485" y="298.7754">Print warnings and continue</text><rect fill="#F1F1F1" height="33.9688" rx="12.5" ry="12.5" style="stroke:#181818;stroke-width:0.5;" width="149.6328" x="258.0123" y="277.6367"/><text fill="#000000" font-family="sans-serif" font-size="12" lengthAdjust="spacing" textLength="129.6328" x="268.0123" y="298.7754">Abort import (exit=1)</text><ellipse cx="332.8287" cy="342.6055" fill="none" rx="11" ry="11" style="stroke:#222222;stroke-width:1;"/><ellipse cx="332.8287" cy="342.6055" fill="#222222" rx="6" ry="6" style="stroke:#222222;stroke-width:1;"/><polygon fill="#F1F1F1" points="172.2028,195.2344,304.3746,195.2344,316.3746,207.2344,304.3746,219.2344,172.2028,219.2344,160.2028,207.2344,172.2028,195.2344" style="stroke:#181818;stroke-width:0.5;"/><text fill="#000000" font-family="sans-serif" font-size="11" lengthAdjust="spacing" textLength="19.0083" x="242.2887" y="229.4448">yes</text><text fill="#000000" font-family="sans-serif" font-size="11" lengthAdjust="spacing" textLength="132.1719" x="172.2028" y="211.0425">override load warnings?</text><polygon fill="#F1F1F1" points="238.2887,373.6055,250.2887,385.6055,238.2887,397.6055,226.2887,385.6055,238.2887,373.6055" style="stroke:#181818;stroke-width:0.5;"/><rect fill="#F1F1F1" height="33.9688" rx="12.5" ry="12.5" style="stroke:#181818;stroke-width:0.5;" width="128.6621" x="173.9576" y="417.6055"/><text fill="#000000" font-family="sans-serif" font-size="12" lengthAdjust="spacing" textLength="108.6621" x="183.9576" y="438.7441">Read review table</text><rect fill="#F1F1F1" height="33.9688" rx="12.5" ry="12.5" style="stroke:#181818;stroke-width:0.5;" width="165.7754" x="155.401" y="471.5742"/><text fill="#000000" font-family="sans-serif" font-size="12" lengthAdjust="spacing" textLength="145.7754" x="165.401" y="492.7129">Check required columns</text><rect fill="#F1F1F1" height="33.9688" rx="12.5" ry="12.5" style="stroke:#181818;stroke-width:0.5;" width="150.9688" x="162.8043" y="569.543"/><text fill="#000000" font-family="sans-serif" font-size="12" lengthAdjust="spacing" textLength="130.9688" x="172.8043" y="590.6816">Read next review row</text><polygon fill="#F1F1F1" points="155.7806,671.9141,320.7968,671.9141,332.7968,683.9141,320.7968,695.9141,155.7806,695.9141,143.7806,683.9141,155.7806,671.9141" style="stroke:#181818;stroke-width:0.5;"/><text fill="#000000" font-family="sans-serif" font-size="11" lengthAdjust="spacing" textLength="165.0161" x="155.7806" y="687.7222">category_source == fallback?</text><text fill="#000000" font-family="sans-serif" font-size="11" lengthAdjust="spacing" textLength="19.0083" x="124.7723" y="681.3198">yes</text><text fill="#000000" font-family="sans-serif" font-size="11" lengthAdjust="spacing" textLength="13.7017" x="332.7968" y="681.3198">no</text><rect fill="#F1F1F1" height="33.9688" rx="12.5" ry="12.5" style="stroke:#181818;stroke-width:0.5;" width="162.7578" x="11" y="705.9141"/><text fill="#000000" font-family="sans-serif" font-size="12" lengthAdjust="spacing" textLength="142.7578" x="21" y="727.0527">Continue row validation</text><polygon fill="#F1F1F1" points="307.1367,705.9141,461.2603,705.9141,473.2603,717.9141,461.2603,729.9141,307.1367,729.9141,295.1367,717.9141,307.1367,705.9141" style="stroke:#181818;stroke-width:0.5;"/><text fill="#000000" font-family="sans-serif" font-size="11" lengthAdjust="spacing" textLength="154.1235" x="307.1367" y="721.7222">--allow-non-fallback-import?</text><text fill="#000000" font-family="sans-serif" font-size="11" lengthAdjust="spacing" textLength="19.0083" x="276.1284" y="715.3198">yes</text><text fill="#000000" font-family="sans-serif" font-size="11" lengthAdjust="spacing" textLength="13.7017" x="473.2603" y="715.3198">no</text><rect fill="#F1F1F1" height="33.9688" rx="12.5" ry="12.5" style="stroke:#181818;stroke-width:0.5;" width="162.7578" x="203.7578" y="739.9141"/><text fill="#000000" font-family="sans-serif" font-size="12" lengthAdjust="spacing" textLength="142.7578" x="213.7578" y="761.0527">Continue row validation</text><rect fill="#F1F1F1" height="33.9688" rx="12.5" ry="12.5" style="stroke:#181818;stroke-width:0.5;" width="158.2461" x="404.1372" y="739.9141"/><text fill="#000000" font-family="sans-serif" font-size="12" lengthAdjust="spacing" textLength="138.2461" x="414.1372" y="761.0527">Skip row (non-fallback)</text><polygon fill="#F1F1F1" points="384.1985,779.8828,396.1985,791.8828,384.1985,803.8828,372.1985,791.8828,384.1985,779.8828" style="stroke:#181818;stroke-width:0.5;"/><polygon fill="#F1F1F1" points="238.2887,809.8828,250.2887,821.8828,238.2887,833.8828,226.2887,821.8828,238.2887,809.8828" style="stroke:#181818;stroke-width:0.5;"/><polygon fill="#F1F1F1" points="163.7084,853.8828,312.869,853.8828,324.869,865.8828,312.869,877.8828,163.7084,877.8828,151.7084,865.8828,163.7084,853.8828" style="stroke:#181818;stroke-width:0.5;"/><text fill="#000000" font-family="sans-serif" font-size="11" lengthAdjust="spacing" textLength="149.1606" x="163.7084" y="869.6909">description/category valid?</text><text fill="#000000" font-family="sans-serif" font-size="11" lengthAdjust="spacing" textLength="19.0083" x="132.7001" y="863.2886">yes</text><text fill="#000000" font-family="sans-serif" font-size="11" lengthAdjust="spacing" textLength="13.7017" x="324.869" y="863.2886">no</text><rect fill="#F1F1F1" height="33.9688" rx="12.5" ry="12.5" style="stroke:#181818;stroke-width:0.5;" width="139.5078" x="71.9545" y="887.8828"/><text fill="#000000" font-family="sans-serif" font-size="12" lengthAdjust="spacing" textLength="119.5078" x="81.9545" y="909.0215">Build override entry</text><rect fill="#F1F1F1" height="33.9688" rx="12.5" ry="12.5" style="stroke:#181818;stroke-width:0.5;" width="124.2793" x="272.7294" y="887.8828"/><text fill="#000000" font-family="sans-serif" font-size="12" lengthAdjust="spacing" textLength="104.2793" x="282.7294" y="909.0215">Skip row (invalid)</text><polygon fill="#F1F1F1" points="238.2887,927.8516,250.2887,939.8516,238.2887,951.8516,226.2887,939.8516,238.2887,927.8516" style="stroke:#181818;stroke-width:0.5;"/><polygon fill="#F1F1F1" points="207.4425,623.5117,269.1349,623.5117,281.1349,635.5117,269.1349,647.5117,207.4425,647.5117,195.4425,635.5117,207.4425,623.5117" style="stroke:#181818;stroke-width:0.5;"/><text fill="#000000" font-family="sans-serif" font-size="11" lengthAdjust="spacing" textLength="19.0083" x="242.2887" y="657.7222">yes</text><text fill="#000000" font-family="sans-serif" font-size="11" lengthAdjust="spacing" textLength="61.6924" x="207.4425" y="639.3198">row exists?</text><polygon fill="#F1F1F1" points="238.2887,971.8516,250.2887,983.8516,238.2887,995.8516,226.2887,983.8516,238.2887,971.8516" style="stroke:#181818;stroke-width:0.5;"/><polygon fill="#F1F1F1" points="238.2887,525.543,250.2887,537.543,238.2887,549.543,226.2887,537.543,238.2887,525.543" style="stroke:#181818;stroke-width:0.5;"/><polygon fill="#F1F1F1" points="206.2635,1015.8516,270.3138,1015.8516,282.3138,1027.8516,270.3138,1039.8516,206.2635,1039.8516,194.2635,1027.8516,206.2635,1015.8516" style="stroke:#181818;stroke-width:0.5;"/><text fill="#000000" font-family="sans-serif" font-size="11" lengthAdjust="spacing" textLength="64.0503" x="206.2635" y="1031.6597">more rows?</text><text fill="#000000" font-family="sans-serif" font-size="11" lengthAdjust="spacing" textLength="19.0083" x="282.3138" y="1025.2573">yes</text><rect fill="#F1F1F1" height="33.9688" rx="12.5" ry="12.5" style="stroke:#181818;stroke-width:0.5;" width="174.3066" x="151.1354" y="1059.8516"/><text fill="#000000" font-family="sans-serif" font-size="12" lengthAdjust="spacing" textLength="154.3066" x="161.1354" y="1080.9902">Upsert entries in-memory</text><rect fill="#F1F1F1" height="47.9375" rx="12.5" ry="12.5" style="stroke:#181818;stroke-width:0.5;" width="150.0488" x="163.2643" y="1162.2227"/><text fill="#000000" font-family="sans-serif" font-size="12" lengthAdjust="spacing" textLength="130.0488" x="173.2643" y="1183.3613">Return counters only;</text><text fill="#000000" font-family="sans-serif" font-size="12" lengthAdjust="spacing" textLength="50.3027" x="173.2643" y="1197.3301">No write</text><ellipse cx="238.2887" cy="1242.6914" fill="none" rx="11" ry="11" style="stroke:#222222;stroke-width:1;"/><ellipse cx="238.2887" cy="1242.6914" fill="#222222" rx="6" ry="6" style="stroke:#222222;stroke-width:1;"/><polygon fill="#F1F1F1" points="211.1754,1113.8203,265.402,1113.8203,277.402,1125.8203,265.402,1137.8203,211.1754,1137.8203,199.1754,1125.8203,211.1754,1113.8203" style="stroke:#181818;stroke-width:0.5;"/><text fill="#000000" font-family="sans-serif" font-size="11" lengthAdjust="spacing" textLength="19.0083" x="242.2887" y="1148.0308">yes</text><text fill="#000000" font-family="sans-serif" font-size="11" lengthAdjust="spacing" textLength="54.2266" x="211.1754" y="1129.6284">--dry-run?</text><rect fill="#F1F1F1" height="47.9375" rx="12.5" ry="12.5" style="stroke:#181818;stroke-width:0.5;" width="226.9531" x="124.8121" y="1344.0938"/><text fill="#000000" font-family="sans-serif" font-size="12" lengthAdjust="spacing" textLength="206.9531" x="134.8121" y="1365.2324">Create backup (default timestamp</text><text fill="#000000" font-family="sans-serif" font-size="12" lengthAdjust="spacing" textLength="104.7832" x="134.8121" y="1379.2012">or --backup-path)</text><polygon fill="#F1F1F1" points="211.3527,1295.6914,265.2247,1295.6914,277.2247,1307.6914,265.2247,1319.6914,211.3527,1319.6914,199.3527,1307.6914,211.3527,1295.6914" style="stroke:#181818;stroke-width:0.5;"/><text fill="#000000" font-family="sans-serif" font-size="11" lengthAdjust="spacing" textLength="19.0083" x="242.2887" y="1329.9019">yes</text><text fill="#000000" font-family="sans-serif" font-size="11" lengthAdjust="spacing" textLength="53.8721" x="211.3527" y="1311.4995">--backup?</text><polygon fill="#F1F1F1" points="238.2887,1412.0313,250.2887,1424.0313,238.2887,1436.0313,226.2887,1424.0313,238.2887,1412.0313" style="stroke:#181818;stroke-width:0.5;"/><rect fill="#F1F1F1" height="33.9688" rx="12.5" ry="12.5" style="stroke:#181818;stroke-width:0.5;" width="184.8418" x="145.8678" y="1456.0313"/><text fill="#000000" font-family="sans-serif" font-size="12" lengthAdjust="spacing" textLength="164.8418" x="155.8678" y="1477.1699">Write merged overrides file</text><rect fill="#F1F1F1" height="33.9688" rx="12.5" ry="12.5" style="stroke:#181818;stroke-width:0.5;" width="221.8496" x="127.3639" y="1510"/><text fill="#000000" font-family="sans-serif" font-size="12" lengthAdjust="spacing" textLength="201.8496" x="137.3639" y="1531.1387">Return counters and backup path</text><ellipse cx="238.2887" cy="1574.9688" fill="none" rx="11" ry="11" style="stroke:#222222;stroke-width:1;"/><ellipse cx="238.2887" cy="1574.9688" fill="#222222" rx="6" ry="6" style="stroke:#222222;stroke-width:1;"/><line style="stroke:#181818;stroke-width:1;" x1="238.2887" x2="238.2887" y1="67.2969" y2="87.2969"/><polygon fill="#181818" points="234.2887,77.2969,238.2887,87.2969,242.2887,77.2969,238.2887,81.2969" style="stroke:#181818;stroke-width:1;"/><line style="stroke:#181818;stroke-width:1;" x1="238.2887" x2="238.2887" y1="121.2656" y2="141.2656"/><polygon fill="#181818" points="234.2887,131.2656,238.2887,141.2656,242.2887,131.2656,238.2887,135.2656" style="stroke:#181818;stroke-width:1;"/><line style="stroke:#181818;stroke-width:1;" x1="332.8287" x2="332.8287" y1="311.6055" y2="331.6055"/><polygon fill="#181818" points="328.8287,321.6055,332.8287,331.6055,336.8287,321.6055,332.8287,325.6055" style="stroke:#181818;stroke-width:1;"/><line style="stroke:#181818;stroke-width:1;" x1="164.4003" x2="143.7487" y1="255.6367" y2="255.6367"/><line style="stroke:#181818;stroke-width:1;" x1="143.7487" x2="143.7487" y1="255.6367" y2="277.6367"/><polygon fill="#181818" points="139.7487,267.6367,143.7487,277.6367,147.7487,267.6367,143.7487,271.6367" style="stroke:#181818;stroke-width:1;"/><line style="stroke:#181818;stroke-width:1;" x1="312.1771" x2="332.8287" y1="255.6367" y2="255.6367"/><line style="stroke:#181818;stroke-width:1;" x1="332.8287" x2="332.8287" y1="255.6367" y2="277.6367"/><polygon fill="#181818" points="328.8287,267.6367,332.8287,277.6367,336.8287,267.6367,332.8287,271.6367" style="stroke:#181818;stroke-width:1;"/><line style="stroke:#181818;stroke-width:1;" x1="143.7487" x2="143.7487" y1="311.6055" y2="358.6055"/><line style="stroke:#181818;stroke-width:1;" x1="143.7487" x2="238.2887" y1="358.6055" y2="358.6055"/><line style="stroke:#181818;stroke-width:1;" x1="238.2887" x2="238.2887" y1="358.6055" y2="373.6055"/><polygon fill="#181818" points="234.2887,363.6055,238.2887,373.6055,242.2887,363.6055,238.2887,367.6055" style="stroke:#181818;stroke-width:1;"/><line style="stroke:#181818;stroke-width:1;" x1="238.2887" x2="238.2887" y1="219.2344" y2="243.6367"/><polygon fill="#181818" points="234.2887,233.6367,238.2887,243.6367,242.2887,233.6367,238.2887,237.6367" style="stroke:#181818;stroke-width:1;"/><line style="stroke:#181818;stroke-width:1;" x1="316.3746" x2="427.6451" y1="207.2344" y2="207.2344"/><polygon fill="#181818" points="423.6451,299.1211,427.6451,309.1211,431.6451,299.1211,427.6451,303.1211" style="stroke:#181818;stroke-width:1;"/><line style="stroke:#181818;stroke-width:1;" x1="427.6451" x2="427.6451" y1="207.2344" y2="385.6055"/><line style="stroke:#181818;stroke-width:1;" x1="427.6451" x2="250.2887" y1="385.6055" y2="385.6055"/><polygon fill="#181818" points="260.2887,381.6055,250.2887,385.6055,260.2887,389.6055,256.2887,385.6055" style="stroke:#181818;stroke-width:1;"/><line style="stroke:#181818;stroke-width:1;" x1="238.2887" x2="238.2887" y1="175.2344" y2="195.2344"/><polygon fill="#181818" points="234.2887,185.2344,238.2887,195.2344,242.2887,185.2344,238.2887,189.2344" style="stroke:#181818;stroke-width:1;"/><line style="stroke:#181818;stroke-width:1;" x1="238.2887" x2="238.2887" y1="397.6055" y2="417.6055"/><polygon fill="#181818" points="234.2887,407.6055,238.2887,417.6055,242.2887,407.6055,238.2887,411.6055" style="stroke:#181818;stroke-width:1;"/><line style="stroke:#181818;stroke-width:1;" x1="238.2887" x2="238.2887" y1="451.5742" y2="471.5742"/><polygon fill="#181818" points="234.2887,461.5742,238.2887,471.5742,242.2887,461.5742,238.2887,465.5742" style="stroke:#181818;stroke-width:1;"/><line style="stroke:#181818;stroke-width:1;" x1="295.1367" x2="285.1367" y1="717.9141" y2="717.9141"/><line style="stroke:#181818;stroke-width:1;" x1="285.1367" x2="285.1367" y1="717.9141" y2="739.9141"/><polygon fill="#181818" points="281.1367,729.9141,285.1367,739.9141,289.1367,729.9141,285.1367,733.9141" style="stroke:#181818;stroke-width:1;"/><line style="stroke:#181818;stroke-width:1;" x1="473.2603" x2="483.2603" y1="717.9141" y2="717.9141"/><line style="stroke:#181818;stroke-width:1;" x1="483.2603" x2="483.2603" y1="717.9141" y2="739.9141"/><polygon fill="#181818" points="479.2603,729.9141,483.2603,739.9141,487.2603,729.9141,483.2603,733.9141" style="stroke:#181818;stroke-width:1;"/><line style="stroke:#181818;stroke-width:1;" x1="285.1367" x2="285.1367" y1="773.8828" y2="791.8828"/><line style="stroke:#181818;stroke-width:1;" x1="285.1367" x2="372.1985" y1="791.8828" y2="791.8828"/><polygon fill="#181818" points="362.1985,787.8828,372.1985,791.8828,362.1985,795.8828,366.1985,791.8828" style="stroke:#181818;stroke-width:1;"/><line style="stroke:#181818;stroke-width:1;" x1="483.2603" x2="483.2603" y1="773.8828" y2="791.8828"/><line style="stroke:#181818;stroke-width:1;" x1="483.2603" x2="396.1985" y1="791.8828" y2="791.8828"/><polygon fill="#181818" points="406.1985,787.8828,396.1985,791.8828,406.1985,795.8828,402.1985,791.8828" style="stroke:#181818;stroke-width:1;"/><line style="stroke:#181818;stroke-width:1;" x1="143.7806" x2="92.3789" y1="683.9141" y2="683.9141"/><line style="stroke:#181818;stroke-width:1;" x1="92.3789" x2="92.3789" y1="683.9141" y2="705.9141"/><polygon fill="#181818" points="88.3789,695.9141,92.3789,705.9141,96.3789,695.9141,92.3789,699.9141" style="stroke:#181818;stroke-width:1;"/><line style="stroke:#181818;stroke-width:1;" x1="332.7968" x2="384.1985" y1="683.9141" y2="683.9141"/><line style="stroke:#181818;stroke-width:1;" x1="384.1985" x2="384.1985" y1="683.9141" y2="705.9141"/><polygon fill="#181818" points="380.1985,695.9141,384.1985,705.9141,388.1985,695.9141,384.1985,699.9141" style="stroke:#181818;stroke-width:1;"/><line style="stroke:#181818;stroke-width:1;" x1="92.3789" x2="92.3789" y1="739.8828" y2="821.8828"/><line style="stroke:#181818;stroke-width:1;" x1="92.3789" x2="226.2887" y1="821.8828" y2="821.8828"/><polygon fill="#181818" points="216.2887,817.8828,226.2887,821.8828,216.2887,825.8828,220.2887,821.8828" style="stroke:#181818;stroke-width:1;"/><line style="stroke:#181818;stroke-width:1;" x1="384.1985" x2="384.1985" y1="803.8828" y2="821.8828"/><line style="stroke:#181818;stroke-width:1;" x1="384.1985" x2="250.2887" y1="821.8828" y2="821.8828"/><polygon fill="#181818" points="260.2887,817.8828,250.2887,821.8828,260.2887,825.8828,256.2887,821.8828" style="stroke:#181818;stroke-width:1;"/><line style="stroke:#181818;stroke-width:1;" x1="151.7084" x2="141.7084" y1="865.8828" y2="865.8828"/><line style="stroke:#181818;stroke-width:1;" x1="141.7084" x2="141.7084" y1="865.8828" y2="887.8828"/><polygon fill="#181818" points="137.7084,877.8828,141.7084,887.8828,145.7084,877.8828,141.7084,881.8828" style="stroke:#181818;stroke-width:1;"/><line style="stroke:#181818;stroke-width:1;" x1="324.869" x2="334.869" y1="865.8828" y2="865.8828"/><line style="stroke:#181818;stroke-width:1;" x1="334.869" x2="334.869" y1="865.8828" y2="887.8828"/><polygon fill="#181818" points="330.869,877.8828,334.869,887.8828,338.869,877.8828,334.869,881.8828" style="stroke:#181818;stroke-width:1;"/><line style="stroke:#181818;stroke-width:1;" x1="141.7084" x2="141.7084" y1="921.8516" y2="939.8516"/><line style="stroke:#181818;stroke-width:1;" x1="141.7084" x2="226.2887" y1="939.8516" y2="939.8516"/><polygon fill="#181818" points="216.2887,935.8516,226.2887,939.8516,216.2887,943.8516,220.2887,939.8516" style="stroke:#181818;stroke-width:1;"/><line style="stroke:#181818;stroke-width:1;" x1="334.869" x2="334.869" y1="921.8516" y2="939.8516"/><line style="stroke:#181818;stroke-width:1;" x1="334.869" x2="250.2887" y1="939.8516" y2="939.8516"/><polygon fill="#181818" points="260.2887,935.8516,250.2887,939.8516,260.2887,943.8516,256.2887,939.8516" style="stroke:#181818;stroke-width:1;"/><line style="stroke:#181818;stroke-width:1;" x1="238.2887" x2="238.2887" y1="833.8828" y2="853.8828"/><polygon fill="#181818" points="234.2887,843.8828,238.2887,853.8828,242.2887,843.8828,238.2887,847.8828" style="stroke:#181818;stroke-width:1;"/><line style="stroke:#181818;stroke-width:1;" x1="238.2887" x2="238.2887" y1="647.5117" y2="671.9141"/><polygon fill="#181818" points="234.2887,661.9141,238.2887,671.9141,242.2887,661.9141,238.2887,665.9141" style="stroke:#181818;stroke-width:1;"/><line style="stroke:#181818;stroke-width:1;" x1="281.1349" x2="576.3833" y1="635.5117" y2="635.5117"/><polygon fill="#181818" points="572.3833,809.3828,576.3833,819.3828,580.3833,809.3828,576.3833,813.3828" style="stroke:#181818;stroke-width:1;"/><line style="stroke:#181818;stroke-width:1;" x1="576.3833" x2="576.3833" y1="635.5117" y2="983.8516"/><line style="stroke:#181818;stroke-width:1;" x1="576.3833" x2="250.2887" y1="983.8516" y2="983.8516"/><polygon fill="#181818" points="260.2887,979.8516,250.2887,983.8516,260.2887,987.8516,256.2887,983.8516" style="stroke:#181818;stroke-width:1;"/><line style="stroke:#181818;stroke-width:1;" x1="238.2887" x2="238.2887" y1="951.8516" y2="971.8516"/><polygon fill="#181818" points="234.2887,961.8516,238.2887,971.8516,242.2887,961.8516,238.2887,965.8516" style="stroke:#181818;stroke-width:1;"/><line style="stroke:#181818;stroke-width:1;" x1="238.2887" x2="238.2887" y1="603.5117" y2="623.5117"/><polygon fill="#181818" points="234.2887,613.5117,238.2887,623.5117,242.2887,613.5117,238.2887,617.5117" style="stroke:#181818;stroke-width:1;"/><line style="stroke:#181818;stroke-width:1;" x1="238.2887" x2="238.2887" y1="549.543" y2="569.543"/><polygon fill="#181818" points="234.2887,559.543,238.2887,569.543,242.2887,559.543,238.2887,563.543" style="stroke:#181818;stroke-width:1;"/><line style="stroke:#181818;stroke-width:1;" x1="282.3138" x2="594.3833" y1="1027.8516" y2="1027.8516"/><polygon fill="#181818" points="590.3833,794.8984,594.3833,784.8984,598.3833,794.8984,594.3833,790.8984" style="stroke:#181818;stroke-width:1;"/><line style="stroke:#181818;stroke-width:1;" x1="594.3833" x2="594.3833" y1="537.543" y2="1027.8516"/><line style="stroke:#181818;stroke-width:1;" x1="594.3833" x2="250.2887" y1="537.543" y2="537.543"/><polygon fill="#181818" points="260.2887,533.543,250.2887,537.543,260.2887,541.543,256.2887,537.543" style="stroke:#181818;stroke-width:1;"/><line style="stroke:#181818;stroke-width:1;" x1="238.2887" x2="238.2887" y1="995.8516" y2="1015.8516"/><polygon fill="#181818" points="234.2887,1005.8516,238.2887,1015.8516,242.2887,1005.8516,238.2887,1009.8516" style="stroke:#181818;stroke-width:1;"/><line style="stroke:#181818;stroke-width:1;" x1="238.2887" x2="238.2887" y1="505.543" y2="525.543"/><polygon fill="#181818" points="234.2887,515.543,238.2887,525.543,242.2887,515.543,238.2887,519.543" style="stroke:#181818;stroke-width:1;"/><line style="stroke:#181818;stroke-width:1;" x1="238.2887" x2="238.2887" y1="1039.8516" y2="1059.8516"/><polygon fill="#181818" points="234.2887,1049.8516,238.2887,1059.8516,242.2887,1049.8516,238.2887,1053.8516" style="stroke:#181818;stroke-width:1;"/><line style="stroke:#181818;stroke-width:1;" x1="238.2887" x2="238.2887" y1="1210.1602" y2="1231.6914"/><polygon fill="#181818" points="234.2887,1221.6914,238.2887,1231.6914,242.2887,1221.6914,238.2887,1225.6914" style="stroke:#181818;stroke-width:1;"/><line style="stroke:#181818;stroke-width:1;" x1="238.2887" x2="238.2887" y1="1137.8203" y2="1162.2227"/><polygon fill="#181818" points="234.2887,1152.2227,238.2887,1162.2227,242.2887,1152.2227,238.2887,1156.2227" style="stroke:#181818;stroke-width:1;"/><line style="stroke:#181818;stroke-width:1;" x1="277.402" x2="323.3131" y1="1125.8203" y2="1125.8203"/><polygon fill="#181818" points="319.3131,1201.6914,323.3131,1211.6914,327.3131,1201.6914,323.3131,1205.6914" style="stroke:#181818;stroke-width:1;"/><line style="stroke:#181818;stroke-width:1;" x1="323.3131" x2="323.3131" y1="1125.8203" y2="1275.6914"/><line style="stroke:#181818;stroke-width:1;" x1="323.3131" x2="238.2887" y1="1275.6914" y2="1275.6914"/><line style="stroke:#181818;stroke-width:1;" x1="238.2887" x2="238.2887" y1="1275.6914" y2="1295.6914"/><polygon fill="#181818" points="234.2887,1285.6914,238.2887,1295.6914,242.2887,1285.6914,238.2887,1289.6914" style="stroke:#181818;stroke-width:1;"/><line style="stroke:#181818;stroke-width:1;" x1="238.2887" x2="238.2887" y1="1093.8203" y2="1113.8203"/><polygon fill="#181818" points="234.2887,1103.8203,238.2887,1113.8203,242.2887,1103.8203,238.2887,1107.8203" style="stroke:#181818;stroke-width:1;"/><line style="stroke:#181818;stroke-width:1;" x1="238.2887" x2="238.2887" y1="1319.6914" y2="1344.0938"/><polygon fill="#181818" points="234.2887,1334.0938,238.2887,1344.0938,242.2887,1334.0938,238.2887,1338.0938" style="stroke:#181818;stroke-width:1;"/><line style="stroke:#181818;stroke-width:1;" x1="277.2247" x2="361.7653" y1="1307.6914" y2="1307.6914"/><polygon fill="#181818" points="357.7653,1358.0625,361.7653,1368.0625,365.7653,1358.0625,361.7653,1362.0625" style="stroke:#181818;stroke-width:1;"/><line style="stroke:#181818;stroke-width:1;" x1="361.7653" x2="361.7653" y1="1307.6914" y2="1424.0313"/><line style="stroke:#181818;stroke-width:1;" x1="361.7653" x2="250.2887" y1="1424.0313" y2="1424.0313"/><polygon fill="#181818" points="260.2887,1420.0313,250.2887,1424.0313,260.2887,1428.0313,256.2887,1424.0313" style="stroke:#181818;stroke-width:1;"/><line style="stroke:#181818;stroke-width:1;" x1="238.2887" x2="238.2887" y1="1392.0313" y2="1412.0313"/><polygon fill="#181818" points="234.2887,1402.0313,238.2887,1412.0313,242.2887,1402.0313,238.2887,1406.0313" style="stroke:#181818;stroke-width:1;"/><line style="stroke:#181818;stroke-width:1;" x1="238.2887" x2="238.2887" y1="1436.0313" y2="1456.0313"/><polygon fill="#181818" points="234.2887,1446.0313,238.2887,1456.0313,242.2887,1446.0313,238.2887,1450.0313" style="stroke:#181818;stroke-width:1;"/><line style="stroke:#181818;stroke-width:1;" x1="238.2887" x2="238.2887" y1="1490" y2="1510"/><polygon fill="#181818" points="234.2887,1500,238.2887,1510,242.2887,1500,238.2887,1504" style="stroke:#181818;stroke-width:1;"/><line style="stroke:#181818;stroke-width:1;" x1="238.2887" x2="238.2887" y1="1543.9688" y2="1563.9688"/><polygon fill="#181818" points="234.2887,1553.9688,238.2887,1563.9688,242.2887,1553.9688,238.2887,1557.9688" style="stroke:#181818;stroke-width:1;"/><?plantuml-src XLFBhjD03DtdAxnCXIB4jb65e0Ws224GOdCbD4tSrkh44pnES_FtUFAesjjUiMcZ6ViyFCTAwX44puHzGKqRHE5BvwGMHpw2une-OKMH0iDd7_eiY-f4i_KFZC6VbrPu0-6C8bHZXDRfCPRP-cjmzUKOeWR1Cije3_dbqAUItWaJ7-Bx5UWH6V81uoe3I9L5uRpH5gcmUAqGOFrTYFM2DEgk0YjnPvm0w2D2pc6k_h1BFcUxEJwJRjwjol7EPBQfWMlQPzDlCcioPwVgTjumrziZLYSx_DkHO6BpNSDcEnDiqQbXJ6sCpxhqIkZBsPXzWX57VU0ctLTEyH1a-1D39nN2PWDx6yNELQVx1kFQpcuJ1voTfzgfFTfawjR-xMGvSB4WpmbuHF0_YdiIw_XvedQipgzPLfUESRotNqcQXQWIQXFussKE4-53wnyxybT1GrOP7lk-4aGy0ivQ5lxfVtf1w8zakv4tbjlKanwAuaoThN-r4IqzYOqizCH5WrPgpDDqQnaAwVYbOWk5TiAMbuuL9K9WFvHF_2r0BwHZMiSCpjcRmDBOklOEQokc4s6wJNFRkyuhA3LeQzgqJnm4bkuYxQNvNKBzEz51WtB0-cfxzpJ6-wNCj54pJy8fir7aFm00?></g></svg>